<?xml version="1.0" encoding="iso-8859-1"?>
<!-- Generator: Adobe Illustrator 19.2.1, SVG Export Plug-In . SVG Version: 6.00 Build 0)  -->
<svg version="1.1" xmlns="http://www.w3.org/2000/svg" xmlns:xlink="http://www.w3.org/1999/xlink" x="0px" y="0px"
	 viewBox="0 0 1000 1000" style="enable-background:new 0 0 1000 1000;" xml:space="preserve">
<g id="Seperator" style="display:none;">
	<rect x="-5124.116" y="-3874.065" style="display:inline;fill:#F16667;fill-opacity:0.5;" width="1250.001" height="1249.997"/>
	<rect x="-3874.116" y="-3874.065" style="display:inline;fill:#F16667;fill-opacity:0.5;" width="1250.001" height="1249.997"/>
	<rect x="-2624.116" y="-3874.065" style="display:inline;fill:#F16667;fill-opacity:0.5;" width="1250.001" height="1249.997"/>
	<rect x="-1374.116" y="-3874.065" style="display:inline;fill:#F16667;fill-opacity:0.5;" width="1250.001" height="1249.997"/>
	<rect x="-124.116" y="-3874.065" style="display:inline;fill:#F16667;fill-opacity:0.5;" width="1250.001" height="1249.997"/>
	<rect x="-5124.116" y="-2624.064" style="display:inline;fill:#F16667;fill-opacity:0.5;" width="1250.001" height="1249.997"/>
	<rect x="-3874.116" y="-2624.064" style="display:inline;fill:#F16667;fill-opacity:0.5;" width="1250.001" height="1249.997"/>
	<rect x="-2624.116" y="-2624.064" style="display:inline;fill:#F16667;fill-opacity:0.5;" width="1250.001" height="1249.997"/>
	<rect x="-1374.116" y="-2624.064" style="display:inline;fill:#F16667;fill-opacity:0.5;" width="1250.001" height="1249.997"/>
	<rect x="-124.116" y="-2624.064" style="display:inline;fill:#F16667;fill-opacity:0.5;" width="1250.001" height="1249.997"/>
	<rect x="-5124.116" y="-1374.065" style="display:inline;fill:#F16667;fill-opacity:0.5;" width="1250.001" height="1249.997"/>
	<rect x="-3874.116" y="-1374.065" style="display:inline;fill:#F16667;fill-opacity:0.5;" width="1250.001" height="1249.997"/>
	<rect x="-2624.116" y="-1374.065" style="display:inline;fill:#F16667;fill-opacity:0.5;" width="1250.001" height="1249.997"/>
	<rect x="-1374.116" y="-1374.065" style="display:inline;fill:#F16667;fill-opacity:0.5;" width="1250.001" height="1249.997"/>
	<rect x="-124.116" y="-1374.065" style="display:inline;fill:#F16667;fill-opacity:0.5;" width="1250.001" height="1249.997"/>
	<rect x="-5124.116" y="-124.065" style="display:inline;fill:#F16667;fill-opacity:0.5;" width="1250.001" height="1249.997"/>
	<rect x="-3874.116" y="-124.065" style="display:inline;fill:#F16667;fill-opacity:0.5;" width="1250.001" height="1249.997"/>
	<rect x="-2624.116" y="-124.065" style="display:inline;fill:#F16667;fill-opacity:0.5;" width="1250.001" height="1249.997"/>
	<rect x="-1374.116" y="-124.065" style="display:inline;fill:#F16667;fill-opacity:0.5;" width="1250.001" height="1249.997"/>
	<rect x="-124.116" y="-124.065" style="display:inline;fill:#F16667;fill-opacity:0.5;" width="1250.001" height="1249.997"/>
	<rect x="-5124.116" y="1125.935" style="display:inline;fill:#F16667;fill-opacity:0.5;" width="1250.001" height="1249.997"/>
	<rect x="-3874.116" y="1125.935" style="display:inline;fill:#F16667;fill-opacity:0.5;" width="1250.001" height="1249.997"/>
	<rect x="-2624.116" y="1125.935" style="display:inline;fill:#F16667;fill-opacity:0.5;" width="1250.001" height="1249.997"/>
	<rect x="-1374.116" y="1125.935" style="display:inline;fill:#F16667;fill-opacity:0.5;" width="1250.001" height="1249.997"/>
	<rect x="-124.116" y="1125.935" style="display:inline;fill:#F16667;fill-opacity:0.5;" width="1250.001" height="1249.997"/>
	<rect x="-5124.116" y="2375.931" style="display:inline;fill:#F16667;fill-opacity:0.5;" width="1250.001" height="1249.998"/>
	<rect x="-3874.116" y="2375.931" style="display:inline;fill:#F16667;fill-opacity:0.5;" width="1250.001" height="1249.998"/>
	<rect x="-2624.116" y="2375.931" style="display:inline;fill:#F16667;fill-opacity:0.5;" width="1250.001" height="1249.998"/>
	<rect x="-1374.116" y="2375.931" style="display:inline;fill:#F16667;fill-opacity:0.5;" width="1250.001" height="1249.998"/>
	<rect x="-124.116" y="2375.931" style="display:inline;fill:#F16667;fill-opacity:0.5;" width="1250.001" height="1249.998"/>
	<rect x="-5124.116" y="3625.848" style="display:inline;fill:#F16667;fill-opacity:0.5;" width="1250.001" height="1249.998"/>
	<rect x="-3874.116" y="3625.848" style="display:inline;fill:#F16667;fill-opacity:0.5;" width="1250.001" height="1249.998"/>
	<rect x="-2624.116" y="3625.848" style="display:inline;fill:#F16667;fill-opacity:0.5;" width="1250.001" height="1249.998"/>
	<rect x="-1374.116" y="3625.848" style="display:inline;fill:#F16667;fill-opacity:0.5;" width="1250.001" height="1249.998"/>
	<rect x="-124.116" y="3625.848" style="display:inline;fill:#F16667;fill-opacity:0.5;" width="1250.001" height="1249.998"/>
</g>
<g id="icons_-_1000pt" style="display:none;">
	<rect x="-4999.116" y="-3749.066" style="display:inline;fill:#7292CB;fill-opacity:0.5;" width="1000.001" height="1000"/>
	<rect x="-3749.116" y="-3749.066" style="display:inline;fill:#7292CB;fill-opacity:0.5;" width="1000.001" height="1000"/>
	<rect x="-2499.116" y="-3749.066" style="display:inline;fill:#7292CB;fill-opacity:0.5;" width="1000.001" height="1000"/>
	<rect x="-1249.116" y="-3749.066" style="display:inline;fill:#7292CB;fill-opacity:0.5;" width="1000.001" height="1000"/>
	<rect x="0.884" y="-3749.066" style="display:inline;fill:#7292CB;fill-opacity:0.5;" width="1000.001" height="1000"/>
	<rect x="-4999.116" y="-2499.066" style="display:inline;fill:#7292CB;fill-opacity:0.5;" width="1000.001" height="1000"/>
	<rect x="-3749.116" y="-2499.066" style="display:inline;fill:#7292CB;fill-opacity:0.5;" width="1000.001" height="1000"/>
	<rect x="-2499.116" y="-2499.066" style="display:inline;fill:#7292CB;fill-opacity:0.5;" width="1000.001" height="1000"/>
	<rect x="-1249.116" y="-2499.066" style="display:inline;fill:#7292CB;fill-opacity:0.5;" width="1000.001" height="1000"/>
	<rect x="0.884" y="-2499.066" style="display:inline;fill:#7292CB;fill-opacity:0.5;" width="1000.001" height="1000"/>
	<rect x="-4999.116" y="-1249.066" style="display:inline;fill:#7292CB;fill-opacity:0.5;" width="1000.001" height="1000"/>
	<rect x="-3749.116" y="-1249.066" style="display:inline;fill:#7292CB;fill-opacity:0.5;" width="1000.001" height="1000"/>
	<rect x="-2499.116" y="-1249.066" style="display:inline;fill:#7292CB;fill-opacity:0.5;" width="1000.001" height="1000"/>
	<rect x="-1249.116" y="-1249.066" style="display:inline;fill:#7292CB;fill-opacity:0.5;" width="1000.001" height="1000"/>
	<rect x="0.884" y="-1249.066" style="display:inline;fill:#7292CB;fill-opacity:0.5;" width="1000.001" height="1000"/>
	<rect x="-4999.116" y="0.934" style="display:inline;fill:#7292CB;fill-opacity:0.5;" width="1000.001" height="1000"/>
	<rect x="-3749.116" y="0.934" style="display:inline;fill:#7292CB;fill-opacity:0.5;" width="1000.001" height="1000"/>
	<rect x="-2499.116" y="0.934" style="display:inline;fill:#7292CB;fill-opacity:0.5;" width="1000.001" height="1000"/>
	<rect x="-1249.116" y="0.934" style="display:inline;fill:#7292CB;fill-opacity:0.5;" width="1000.001" height="1000"/>
	<rect x="0.884" y="0.934" style="display:inline;fill:#7292CB;fill-opacity:0.5;" width="1000.001" height="1000"/>
	<rect x="-4999.116" y="1250.934" style="display:inline;fill:#7292CB;fill-opacity:0.5;" width="1000.001" height="1000"/>
	<rect x="-3749.116" y="1250.934" style="display:inline;fill:#7292CB;fill-opacity:0.5;" width="1000.001" height="1000"/>
	<rect x="-2499.116" y="1250.934" style="display:inline;fill:#7292CB;fill-opacity:0.5;" width="1000.001" height="1000"/>
	<rect x="-1249.116" y="1250.934" style="display:inline;fill:#7292CB;fill-opacity:0.5;" width="1000.001" height="1000"/>
	<rect x="0.884" y="1250.934" style="display:inline;fill:#7292CB;fill-opacity:0.5;" width="1000.001" height="1000"/>
	<rect x="-4999.116" y="2500.93" style="display:inline;fill:#7292CB;fill-opacity:0.5;" width="1000.001" height="1000.001"/>
	<rect x="-3749.116" y="2500.93" style="display:inline;fill:#7292CB;fill-opacity:0.5;" width="1000.001" height="1000.001"/>
	<rect x="-2499.116" y="2500.93" style="display:inline;fill:#7292CB;fill-opacity:0.5;" width="1000.001" height="1000.001"/>
	<rect x="-1249.116" y="2500.93" style="display:inline;fill:#7292CB;fill-opacity:0.5;" width="1000.001" height="1000.001"/>
	<rect x="0.884" y="2500.93" style="display:inline;fill:#7292CB;fill-opacity:0.5;" width="1000.001" height="1000.001"/>
	<rect x="-4999.116" y="3750.914" style="display:inline;fill:#7292CB;fill-opacity:0.5;" width="1000.001" height="1000.001"/>
	<rect x="-3749.116" y="3750.914" style="display:inline;fill:#7292CB;fill-opacity:0.5;" width="1000.001" height="1000.001"/>
	<rect x="-2499.116" y="3750.914" style="display:inline;fill:#7292CB;fill-opacity:0.5;" width="1000.001" height="1000.001"/>
	<rect x="-1249.116" y="3750.914" style="display:inline;fill:#7292CB;fill-opacity:0.5;" width="1000.001" height="1000.001"/>
	<rect x="0.884" y="3750.914" style="display:inline;fill:#7292CB;fill-opacity:0.5;" width="1000.001" height="1000.001"/>
</g>
<g id="dashboard" style="display:none;">
	<path style="display:inline;" d="M-4499.119-3536.976c-241.235,0-437.497,196.261-437.497,437.497
		c0,32.433,3.829,64.711,11.031,96.368c0.776,3.412,11.128,41.957,11.128,41.957l100.441-27.983l-8.827-31.686l-68.612,19.115
		c-6.245-25.066-10.132-50.58-11.5-76.295h71.355v-32.89h-71.832c0.766-27.333,4.239-53.979,10.184-79.711l65.906,20.195
		l9.639-31.456l-66.885-20.489c7.474-23.381,17.006-45.834,28.406-67.162l62.354,36.677l16.679-28.362l-62.308-36.645
		c13.261-20.606,28.313-39.924,44.985-57.74l50.572,50.768l23.308-23.217l-50.518-50.725c15.754-14.333,32.695-27.367,50.569-39.096
		l34.817,56.59l9.682-5.954c36.031,84.278,122.001,284.191,138.656,312.15c14.114,23.793,44.901,31.605,68.734,17.426
		c23.791-14.119,31.597-44.891,17.423-68.727c-16.654-27.95-156.023-196.382-214.765-267.032l8.281-5.097l-34.67-56.349
		c21.725-11.862,44.674-21.717,68.569-29.479l20.288,65.919l31.445-9.675l-20.033-65.084c24.363-5.756,49.542-9.348,75.369-10.459
		v69.061h32.896v-69.126c26.259,0.982,51.868,4.492,76.631,10.268l-20.111,65.341l31.443,9.675l20.401-66.278
		c23.109,7.431,45.314,16.877,66.406,28.151l-35.702,58.036l28.012,17.234l36.025-58.55c19.301,12.423,37.534,26.374,54.407,41.802
		l-49.781,49.979l23.312,23.217l49.792-49.991c16.548,17.79,31.493,37.069,44.658,57.611l-61.202,35.997l16.68,28.362l61.181-35.985
		c11.136,20.945,20.49,42.96,27.845,65.874l-68.816,21.085l9.638,31.456l67.904-20.805c6.035,25.917,9.556,52.774,10.326,80.321
		h-73.008v32.89h72.531c-1.368,25.729-5.261,51.267-11.52,76.356l-69.043-19.236l-8.827,31.686l100.44,27.988l5.16-16.006
		c11.579-39.832,17.45-80.97,17.45-122.262C-4061.616-3340.715-4257.878-3536.976-4499.119-3536.976z M-4507.201-3121.968
		c3.854-2.285,8.237-3.497,12.675-3.497c8.823,0,16.777,4.514,21.28,12.068c6.97,11.747,3.102,26.973-8.628,33.949
		c-11.366,6.734-27.261,2.643-33.931-8.564C-4522.75-3099.763-4518.882-3114.997-4507.201-3121.968z"/>
</g>
<g id="account-details" style="display:none;">
	<path style="display:inline;" d="M-2921.708-3492.757h-222.61v-53.523c0-14.459-11.762-26.219-26.227-26.219h-156.889
		c-14.451,0-26.212,11.76-26.212,26.219v53.523h-222.624c-14.451,0-26.213,11.764-26.213,26.219v488.396
		c0,14.458,11.762,26.219,26.213,26.219h654.562c14.451,0,26.225-11.76,26.225-26.219v-488.396
		C-2895.483-3480.993-2907.257-3492.757-2921.708-3492.757z M-3320.377-3539.23h142.789v46.473h-142.789V-3539.23z
		 M-2928.754-3459.488v138.565h-264.224v-13.775c0-14.459-11.76-26.219-26.225-26.219h-59.562c-14.464,0-26.226,11.76-26.226,26.219
		v13.775h-264.224v-138.565H-2928.754z M-3226.247-3327.647v45.468h-45.473v-45.468H-3226.247z M-3569.213-2985.193v-302.459
		h264.224v12.523c0,14.456,11.762,26.22,26.226,26.22h59.562c14.465,0,26.225-11.764,26.225-26.22v-12.523h264.224v302.459
		H-3569.213z"/>
</g>
<g id="activity" style="display:none;">
	<path style="display:inline;" d="M-1838.059-2926.321c-6.937,0-13.199-4.339-15.616-10.937l-205.688-563.862l-107.547,357.847
		c-2.118,7.032-8.588,11.85-15.929,11.85h-299.333c-9.184,0-16.63-7.444-16.63-16.63c0-9.185,7.446-16.629,16.63-16.629h286.965
		l118.395-393.929c2.066-6.859,8.289-11.625,15.448-11.836c7.145-0.271,13.655,4.199,16.097,10.927l202.648,555.52l59.229-291.486
		c1.391-6.832,6.886-12.066,13.772-13.119c6.898-1.026,13.706,2.285,17.071,8.38l75.08,135.543h162.035
		c9.198,0,16.63,7.444,16.63,16.629c0,9.186-7.432,16.63-16.63,16.63h-171.831c-6.055,0-11.615-3.287-14.551-8.573l-57.97-104.651
		l-61.972,305.013c-1.481,7.289-7.626,12.706-15.057,13.264C-1837.227-2926.334-1837.644-2926.321-1838.059-2926.321z"/>
</g>
<g id="documents" style="display:none;">
	<g style="display:inline;">
		<rect x="-878.37" y="-3308.717" width="349.513" height="33.288"/>
		<rect x="-878.37" y="-3221.661" width="349.513" height="33.286"/>
		<rect x="-878.37" y="-3133.96" width="349.513" height="33.287"/>
		<rect x="-878.37" y="-3046.582" width="349.513" height="33.287"/>
		<path d="M-537.517-3477.142v-89.782c0-14.475-11.781-26.24-26.241-26.24h-459.619c-14.459,0-26.213,11.766-26.213,26.24v549.689
			c0,14.473,11.754,26.239,26.213,26.239h63.713v60.814c0,14.47,11.782,26.24,26.24,26.24h459.62
			c14.459,0,26.214-11.77,26.214-26.24v-450.128v-6.891L-537.517-3477.142z M-494.816-3387.37h-71.514v-71.503L-494.816-3387.37z
			 M-959.664-3479.87v455.588h-56.639v-535.595h445.499v53.768h-2.575h-360.045C-947.882-3506.11-959.664-3494.344-959.664-3479.87z
			 M-926.377-2937.228v-535.595h326.759v92.514c0,14.46,11.779,26.226,26.239,26.226h92.502v416.855H-926.377z"/>
	</g>
</g>
<g id="market-watch" style="display:none;">
	<path style="display:inline;" d="M902.065-3403.799l-31.447-118.071c-0.144-0.541-0.312-1.075-0.507-1.595
		c-2.756-7.273-8.164-13.038-15.236-16.241c-7.072-3.192-14.988-3.426-22.256-0.702c-0.52,0.193-1.026,0.414-1.533,0.661
		l-109.423,54.373c-8.229,4.095-11.583,14.078-7.487,22.309c4.068,8.224,14.053,11.584,22.307,7.501l79.094-39.307l-172.031,355.528
		l-273.443-198.539c-3.627-2.63-8.189-3.702-12.585-2.931c-4.42,0.755-8.345,3.265-10.893,6.95l-244.052,353.816
		c-5.213,7.566-3.315,17.935,4.251,23.148c2.887,1.987,6.175,2.945,9.438,2.945c5.278,0,10.478-2.51,13.715-7.191l234.367-339.789
		l275.743,200.208c3.991,2.885,9.034,3.882,13.831,2.672c4.773-1.205,8.777-4.459,10.92-8.894l181.781-375.695l23.285,87.413
		c1.988,7.442,8.71,12.363,16.068,12.363c1.416,0,2.859-0.182,4.289-0.565C899.154-3385.798,904.432-3394.917,902.065-3403.799z"/>
</g>
<g id="link" style="display:none;">
	<path style="display:inline;" d="M-4303.417-2003.053c23.587,22.139,36.612,51.679,36.612,83.176
		c0,31.463-13.025,61.02-36.612,83.123l-259.618,243.976c-23.622,22.14-55.03,34.34-88.552,34.34
		c-33.557,0-64.965-12.2-88.535-34.34l-80.505-75.688c-23.569-22.12-36.577-51.623-36.629-83.119
		c0-31.515,13.024-61.04,36.558-83.161l116.839-109.782l35.46,33.258l-116.837,109.731c-14.142,13.269-21.946,31.024-21.946,49.954
		c0,18.87,7.804,36.625,21.946,49.861l80.452,75.65c28.301,26.538,78.06,26.538,106.291,0l259.688-243.924
		c14.16-13.25,21.876-30.954,21.876-49.879c0-18.926-7.716-36.663-21.876-49.9l-80.524-75.682
		c-14.14-13.255-32.96-20.548-53.145-20.548c-20.165,0-39.038,7.293-53.093,20.548l-45.062,42.318l-35.391-33.259l45.028-42.354
		c23.534-22.14,54.961-34.29,88.517-34.29c33.454,0,64.915,12.149,88.536,34.29L-4303.417-2003.053z M-4177.886-2329.68
		l-80.504-75.665c-23.57-22.177-55.031-34.289-88.536-34.289c-33.556,0-64.982,12.112-88.586,34.289l-259.688,243.902
		c-23.553,22.176-36.577,51.748-36.577,83.23c0,31.459,13.024,61.053,36.577,83.138l80.503,75.687
		c23.624,22.14,55.05,34.326,88.554,34.326c33.539,0,65.018-12.187,88.621-34.326l45.237-42.494l-35.39-33.295l-45.272,42.544
		c-28.196,26.488-78.112,26.488-106.238,0l-80.627-75.663c-14.02-13.236-21.893-30.992-21.893-49.917
		c0-18.981,7.873-36.666,21.893-49.899l259.723-243.994c14.106-13.232,32.998-20.529,53.162-20.529
		c20.062,0,38.935,7.297,53.076,20.529l80.575,75.669c14.143,13.306,21.893,31.043,21.893,50.005c0,18.856-7.75,36.629-21.893,49.83
		l-116.559,109.5l35.443,33.276l116.452-109.5c23.621-22.09,36.63-51.679,36.682-83.143
		C-4141.256-2277.927-4154.282-2307.504-4177.886-2329.68z"/>
</g>
<g id="video" style="display:none;">
	<path style="display:inline;" d="M-2816.576-1648.434c-13.29,0-25.74-5.248-35.095-14.794l-131.669-133.208v16.156
		c0,72.709-58.543,131.846-130.515,131.846h-486.826c-71.937,0-130.463-59.137-130.463-131.846v-437.673
		c0-72.704,58.526-131.842,130.463-131.842h486.826c71.972,0,130.515,59.138,130.515,131.842v16.157l131.756-133.31
		c9.146-9.426,21.631-14.689,35.008-14.689c27.259,0,49.432,22.312,49.432,49.762v601.868
		C-2767.144-1670.745-2789.317-1648.434-2816.576-1648.434z M-3028.174-1905.479l208.415,210.845
		c0.578,0.598,1.644,1.437,3.184,1.437c2.57,0,4.667-2.236,4.667-4.966v-601.868c0-2.761-2.097-4.999-4.667-4.999
		c-1.504,0-2.485,0.663-3.026,1.256l-208.572,211.022l0.069-125.199c0-48.016-38.469-87.078-85.75-87.078h-486.826
		c-47.248,0-85.699,39.062-85.699,87.078v437.673c0,48.021,38.451,87.082,85.699,87.082h486.826c47.282,0,85.75-39.062,85.75-87.082
		L-3028.174-1905.479z"/>
</g>
<g id="print" style="display:none;">
	<path style="display:inline;" d="M-2221.437-2185.825h-44.775v-260.05c0-19.45,15.827-35.296,35.276-35.296h463.761
		c19.449,0,35.278,15.846,35.278,35.296v260.05h-44.776v-250.57h-444.764V-2185.825z M-2140.106-1631.975h282.087v-44.774h-282.087
		V-1631.975z M-2140.106-1719.954h282.087v-44.775h-282.087V-1719.954z M-1499.063-2150.358v401.057
		c0,19.451-15.83,35.296-35.278,35.296h-230.717l27.233,161.719c0,19.446-15.829,35.297-35.279,35.297h-451.919
		c-19.449,0-35.277-15.851-35.277-35.297l0.313-3.744l26.76-157.975h-230.558c-19.448,0-35.278-15.845-35.278-35.296v-401.057
		c0-19.45,15.83-35.297,35.278-35.297h929.443C-1514.894-2185.655-1499.063-2169.808-1499.063-2150.358z M-1784.526-1561.767
		l-50.563-298.508h-327.946l-50.563,298.508H-1784.526z M-1543.839-2140.878h-910.449v382.097h228.645l19.194-113.319
		c1.207-18.385,16.547-32.95,35.209-32.95h344.354c18.66,0,34,14.565,35.207,32.95l19.082,113.319h228.758V-2140.878z"/>
</g>
<g id="download" style="display:none;">
	<g style="display:inline;">
		<g>
			<path d="M-468.529-2279.879h-96.064v-96.069L-468.529-2279.879z M-1057.824-2439.418c-19.426,0-35.236,15.813-35.236,35.254
				v612.115v116.348v81.708c0,19.44,15.811,35.254,35.236,35.254h617.529c19.426,0,35.234-15.814,35.234-35.254v-676.404v-9.256
				l-159.691-159.696L-1057.824-2439.418z M-1048.339-1603.463v-791.233h439.021v124.298c0,19.427,15.808,35.24,35.238,35.24
				h124.297v631.694H-1048.339z"/>
		</g>
		<path d="M-542.531-1963.255l-36.389-36.407l-144.318,144.053v-349.99h-51.642v349.99l-144.302-144.053l-36.389,36.407
			l206.529,206.529L-542.531-1963.255z"/>
	</g>
</g>
<g id="chevron" style="display:none;">
	<g style="display:inline;">
		<path d="M-4116.986-1049.685l-382.166,371.948l-382.119-371.948l-117.877,114.727l499.996,486.586l500.004-486.586
			L-4116.986-1049.685z"/>
	</g>
</g>
<g id="alert" style="display:none;">
	<g style="display:inline;">
		<path d="M-3249.079-1249.147c-275.699,0-500,224.313-500,500.011s224.301,499.99,500,499.99c275.699,0,500-224.292,500-499.99
			S-2973.38-1249.147-3249.079-1249.147z M-3249.079-312.146c-240.962,0-437-196.033-437-436.99
			c0-240.968,196.038-437.011,437-437.011s437,196.042,437,437.011C-2812.079-508.179-3008.117-312.146-3249.079-312.146z"/>
		<path d="M-3249.079-1033.047c-32.985,0-59.761,26.709-59.761,59.754c0,2.178,0.145,4.36,0.349,6.47l17.987,284.215
			c0,22.826,18.541,41.427,41.425,41.427c22.901,0,41.425-18.533,41.425-41.427l17.979-284.215c0.281-2.11,0.35-4.222,0.35-6.47
			C-3189.326-1006.27-3216.026-1033.047-3249.079-1033.047z"/>
		<path d="M-3298.943-515.17c0,66.567,99.865,66.567,99.865,0C-3199.078-581.736-3298.943-581.736-3298.943-515.17z"/>
	</g>
</g>
<g id="alert-filled" style="display:none;">
	<path style="display:inline;" d="M-1999.058-1249.121c-276.139,0-500,223.862-500,500.009c0,276.129,223.861,499.992,500,499.992
		s500-223.862,500-499.992C-1499.058-1025.259-1722.919-1249.121-1999.058-1249.121z M-2051.676-502.227
		c0-70.239,105.38-70.239,105.38,0C-1946.296-431.985-2051.676-431.985-2051.676-502.227z M-1936.376-978.815l-18.97,299.909
		c0,24.154-19.547,43.711-43.712,43.711c-24.148,0-43.713-19.628-43.713-43.711l-18.98-299.909c-0.215-2.23-0.367-4.528-0.367-6.831
		c0-34.87,28.254-63.05,63.061-63.05c34.877,0,63.051,28.255,63.051,63.05C-1936.007-983.273-1936.078-981.045-1936.376-978.815z"/>
</g>
<g id="info" style="display:none;">
	<path style="display:inline;" d="M-749.104-1249.36c-276.16,0-500.023,223.865-500.023,500.005
		c0,276.129,223.863,499.995,500.023,499.995c276.121,0,499.977-223.866,499.977-499.995
		C-249.127-1025.494-472.982-1249.36-749.104-1249.36z M-691.205-533.128l-3.309,31.031
		c-86.961,53.924-208.832,38.794-158.055-92.049c18.703-48.253,87.18-140.367,67.172-192.953
		c-8.223-21.657-35.621-21.657-62.344-12.566l3.086-28.694c45.254-30.148,104.434-46.61,146.984-21.055
		c76.176,45.723-34.062,211.964-47.238,244.964C-772.225-536.101-738.482-520.296-691.205-533.128z M-694.76-903.72
		c-33.703,0-61.062-27.36-61.062-61.061c0-33.715,27.359-61.058,61.062-61.058c33.723,0,61.059,27.342,61.059,61.058
		C-633.701-931.08-661.037-903.72-694.76-903.72z"/>
</g>
<g id="external-link" style="display:none;">
	<g style="display:inline;">
		<g>
			<g>
				<path style="fill:#010101;" d="M323.998-1148.16l676.887,0.055v677.357L774.246-696.907l-11.74-11.713l-11.723,11.729
					l-346.59,346.899H0.885l548.877-549.202l11.74-11.746l-11.74-11.739L323.998-1148.16"/>
			</g>
		</g>
	</g>
</g>
<g id="custom-column" style="display:none;">
	<path style="display:inline;" d="M-2753.976,570.274c3.117-22.68,4.852-45.797,4.852-69.344c0-23.555-1.734-46.672-4.852-69.352
		l-117.219-26.492c-9.352-36.883-23.984-71.688-42.945-103.547l64.242-101.726c-28.055-36.992-61.039-70.039-98.094-98.07
		l-101.727,64.266c-31.859-19.008-66.664-33.617-103.547-42.945l-26.492-117.242c-22.68-3.141-45.797-4.891-69.344-4.891
		c-23.555,0-46.664,1.75-69.352,4.891l-26.492,117.266c-36.883,9.305-71.602,23.914-103.461,42.922l-101.727-64.266
		c-37.055,28.031-70.125,61.078-98.086,98.07l64.234,101.726c-19.047,31.859-33.672,66.664-42.938,103.547l-117.312,26.492
		c-3.117,22.68-4.852,45.797-4.852,69.352c0,23.547,1.734,46.664,4.852,69.344l117.312,26.469
		c9.266,36.93,23.891,71.688,42.938,103.547l-64.234,101.75c27.961,37.008,61.031,70.039,98.086,98.023l101.727-64.219
		c31.773,18.984,66.578,33.594,103.461,42.922l26.492,117.289c22.688,3.094,45.797,4.875,69.352,4.875
		c23.547,0,46.664-1.781,69.344-4.875l26.492-117.266c36.883-9.352,71.688-23.938,103.547-42.945l101.727,64.219
		c37.055-27.984,70.039-61.016,98.094-98.023l-64.242-101.75c18.961-31.859,33.594-66.617,42.945-103.547L-2753.976,570.274z
		 M-3249.101,784.548c-156.703,0-283.625-126.961-283.625-283.641s126.922-283.672,283.625-283.672s283.711,126.992,283.711,283.672
		S-3092.397,784.548-3249.101,784.548z"/>
</g>
<g id="check" style="display:none;">
	<g style="display:inline;">
		<polygon style="fill-rule:evenodd;clip-rule:evenodd;" points="-2089.655,561.132 -2227.991,415.442 -2330.41,523.302 
			-2089.655,776.964 -1667.893,332.907 -1770.647,224.96 		"/>
	</g>
</g>
<g id="accounts-mobile" style="display:none;">
	<g style="display:inline;">
		<path d="M-4645.198,1434.422c-195.015,0-353.68,158.652-353.68,353.668c0,195.033,158.665,353.694,353.68,353.694
			c195.019,0,353.669-158.661,353.669-353.694C-4291.529,1593.074-4450.18,1434.422-4645.198,1434.422z M-4645.198,2113.679
			c-179.522,0-325.571-146.063-325.571-325.589c0-179.508,146.049-325.562,325.571-325.562
			c179.511,0,325.563,146.053,325.563,325.562C-4319.635,1967.616-4465.688,2113.679-4645.198,2113.679z"/>
		<path d="M-4573.724,1763.293c-11.417-9.057-32.581-19.982-63.485-32.8c-17.418-7.097-28.957-13.778-34.668-20.038
			c-5.844-6.134-8.783-12.325-8.783-18.596c0-7.369,3.309-13.887,9.924-19.53c6.615-5.64,15.221-8.454,25.786-8.454
			c17.979,0,36.149,9.471,54.513,28.409l40.322-39.278c-12.82-12.942-23.909-22.123-33.323-27.558
			c-9.388-5.435-20.833-9.743-34.337-12.955v-23.607h-39.279v20.891c-23.387,1.124-42.75,9.167-58.051,24.127
			c-15.328,14.956-22.977,32.964-22.977,53.988c0,12.667,2.884,24.608,8.66,35.821c5.777,11.199,14.508,21.299,26.199,30.273
			c11.707,8.978,34.119,21.137,67.273,36.454c16.279,7.52,27.285,14.904,32.995,22.136c5.57,7.232,8.343,15.66,8.343,25.265
			c0,11.418-4.336,21.343-13.037,29.768c-8.699,8.426-19.13,12.639-31.236,12.639c-23.811,0-48.445-13.585-73.941-40.733
			l-39.664,40.733c15.025,16.14,31.316,29.095,48.857,38.84c12.817,7.107,28.326,11.693,46.578,13.792v54.498h39.279v-55.762
			c19.35-4.034,34.171-9.948,44.463-17.744c10.324-7.795,18.75-18.392,25.281-31.756c6.533-13.369,9.826-27.917,9.826-43.643
			c0-15.728-3.074-29.932-9.193-42.602C-4553.52,1783.194-4562.306,1772.336-4573.724,1763.293z"/>
	</g>
</g>
<g id="accounts-mobile-selected" style="display:none;">
	<path style="display:inline;" d="M-4645.198,183.977c-195.015,0-353.68,158.652-353.68,353.669
		c0,195.033,158.665,353.694,353.68,353.694c195.019,0,353.669-158.661,353.669-353.694
		C-4291.529,342.63-4450.18,183.977-4645.198,183.977z M-4548.031,631.671c-6.531,13.365-14.957,23.961-25.281,31.756
		c-10.292,7.796-25.113,13.711-44.463,17.744v55.762h-39.279v-54.498c-18.252-2.099-33.761-6.685-46.578-13.792
		c-17.541-9.745-33.832-22.701-48.857-38.84l39.664-40.733c25.496,27.148,50.131,40.733,73.941,40.733
		c12.106,0,22.537-4.213,31.236-12.639c8.701-8.425,13.037-18.35,13.037-29.768c0-9.605-2.772-18.033-8.343-25.265
		c-5.71-7.232-16.716-14.617-32.995-22.136c-33.154-15.317-55.566-27.476-67.273-36.454c-11.691-8.974-20.422-19.074-26.199-30.273
		c-5.776-11.212-8.66-23.154-8.66-35.821c0-21.024,7.648-39.032,22.977-53.988c15.301-14.96,34.664-23.003,58.051-24.127v-20.891
		h39.279v23.607c13.504,3.212,24.949,7.521,34.337,12.955c9.414,5.435,20.503,14.616,33.323,27.558l-40.322,39.278
		c-18.363-18.939-36.533-28.409-54.513-28.409c-10.565,0-19.171,2.814-25.786,8.454c-6.615,5.643-9.924,12.161-9.924,19.53
		c0,6.271,2.939,12.462,8.783,18.596c5.711,6.26,17.25,12.941,34.668,20.038c30.904,12.818,52.068,23.744,63.485,32.8
		c11.418,9.043,20.204,19.901,26.325,32.578c6.119,12.67,9.193,26.874,9.193,42.602
		C-4538.205,603.754-4541.498,618.302-4548.031,631.671z"/>
</g>
<g id="broker-mobile" style="display:none;">
	<g style="display:inline;">
		<path d="M-2990.88,1360.627h-229.781c-70.423,0-112.054,26.047-135.007,84.46l26.181,10.286
			c18.597-47.318,50.12-66.615,108.826-66.615h229.781c75.324,0,132.135,53.258,132.135,123.885v75.546
			c0,74.569-59.146,137.576-129.141,137.576h-62.689l-103.95,93.627l-13.927-93.627h-55.862v28.13h31.604l18.076,121.468
			l134.855-121.468h51.894c85.241,0,157.271-75.882,157.271-165.706v-75.546C-2830.616,1427.402-2901.01,1360.627-2990.88,1360.627z
			"/>
		<path d="M-3301.563,1852.164l-12.884-4.52c-26.759-13.523-31.73-13.921-32.103-44.49c0.938-1.07,14.851-13.465,19.943-19.209
			c47.843-54.557,40.316-147.711,39.436-156.097c-1.728-36.13-11.948-62.771-26.426-82.351c-1.058-1.447-2.087-2.884-3.146-4.244
			c-1.03-1.257-2.071-2.457-3.16-3.639c-10.492-12.129-22.704-20.939-35.408-26.929c-19.257-9.384-39.449-13-56.205-13
			c-1.403,0-2.746,0.025-4.095,0.075c-1.305-0.05-2.637-0.07-3.98-0.07c-13.669-0.005-29.835,2.48-45.933,8.647
			c-20.304,7.218-40.272,20.803-55.041,43.378c-0.316,0.492-0.657,0.98-0.974,1.489c-1.483,2.335-2.912,4.786-4.257,7.308
			c-1.514,2.76-2.941,5.609-4.313,8.577c-0.232,0.536-0.469,1.077-0.743,1.642c-7.154,16.209-12.043,35.588-13.171,59.116
			c-0.837,8.386-9.244,101.54,39.407,156.097c5.094,5.744,18.9,18.139,19.805,19.209c-0.369,30.569-5.341,30.967-32.099,44.49
			l-12.854,4.52c-90.782,25.294-137.853,85.812-137.853,188.102c0,54.625,71.273,100.316,251.95,100.977
			c180.662-0.66,251.948-46.352,251.948-100.977C-3163.717,1937.976-3210.798,1877.458-3301.563,1852.164z M-3415.556,2113.111
			c-165.278-0.604-223.93-39.621-223.93-72.846c0-87.551,37.266-138.707,117.261-161.002l0.907-0.254l0.88-0.308l12.855-4.521
			l1.729-0.603l1.637-0.826l4.792-2.402c29.34-14.67,42.238-25.431,42.746-66.85l0.123-10.502l-6.772-8.014
			c-1.373-1.613-2.458-2.625-6.494-6.388c-3.643-3.384-11.198-10.431-13.808-13.37c-40.767-45.719-32.772-130.977-32.401-134.581
			l0.068-0.722l0.027-0.727c0.881-18.174,4.464-34.565,10.662-48.742c0.301-0.659,0.56-1.237,0.684-1.545
			c1.113-2.381,2.252-4.676,3.601-7.141c1.016-1.891,2.086-3.733,3.407-5.79l0.56-0.866c10.017-15.322,23.791-26.181,41.565-32.506
			c11.414-4.381,24.161-6.791,35.865-6.785c0.999,0,1.99,0.015,2.952,0.048l1.028,0.042l1.017-0.042
			c1.005-0.033,2.034-0.054,3.078-0.054c8.597,0,25.74,1.325,44.214,10.315c9.984,4.709,18.791,11.407,26.125,19.888l0.274,0.314
			l0.29,0.311c0.645,0.7,1.263,1.416,1.88,2.155c0.619,0.812,1.223,1.649,1.839,2.495l0.673,0.927
			c12.584,17.024,19.644,39.558,20.964,66.976l0.027,0.795l0.081,0.789c2.541,24.208,1.62,95.58-32.5,134.492
			c-2.58,2.918-10.601,10.328-14.036,13.494c-3.324,3.078-5.617,5.385-6.07,5.907l-7.06,8.091l0.138,10.734
			c0.507,41.419,13.405,52.18,42.743,66.85l4.795,2.402l1.647,0.826l1.732,0.61l12.884,4.519l0.863,0.311l0.893,0.246
			c80.011,22.295,117.275,73.451,117.275,161.002C-3191.844,2073.49-3250.483,2112.507-3415.556,2113.111z"/>
	</g>
</g>
<g id="broker-mobile-selected" style="display:none;">
	<path style="display:inline;" d="M759.119,2610.624H529.338c-70.422,0-112.053,26.047-135.006,84.46l26.18,10.286
		c18.598-47.318,50.121-66.615,108.826-66.615h229.781c75.324,0,132.135,53.258,132.135,123.885v75.546
		c0,74.569-59.146,137.576-129.141,137.576h-62.689l-103.949,93.627l-13.928-93.627h-55.861v28.13h31.604l18.076,121.468
		l134.856-121.468h51.893c85.242,0,157.272-75.882,157.272-165.706v-75.546C919.385,2677.399,848.99,2610.624,759.119,2610.624z"/>
	<path style="display:inline;" d="M448.438,3102.161l-12.885-4.52c-26.758-13.523-31.73-13.921-32.102-44.49
		c0.938-1.07,14.85-13.465,19.943-19.209c47.842-54.557,40.316-147.711,39.436-156.097c-1.729-36.13-11.949-62.771-26.426-82.351
		c-1.059-1.447-2.088-2.884-3.146-4.244c-1.031-1.257-2.072-2.457-3.16-3.639c-10.492-12.129-22.705-20.939-35.408-26.929
		c-19.258-9.384-39.449-13-56.205-13c-1.404,0-2.746,0.025-4.096,0.075c-1.305-0.05-2.637-0.07-3.98-0.07
		c-13.668-0.005-29.834,2.48-45.932,8.647c-20.305,7.218-40.273,20.803-55.041,43.378c-0.316,0.492-0.658,0.98-0.975,1.489
		c-1.482,2.335-2.912,4.786-4.256,7.308c-1.514,2.76-2.941,5.609-4.314,8.577c-0.232,0.536-0.469,1.077-0.742,1.642
		c-7.154,16.209-12.043,35.588-13.172,59.116c-0.836,8.386-9.244,101.54,39.408,156.097c5.094,5.744,18.9,18.139,19.805,19.209
		c-0.369,30.569-5.342,30.967-32.1,44.49l-12.854,4.52c-90.781,25.294-137.852,85.812-137.852,188.102
		c0,54.625,71.273,100.316,251.949,100.977c180.662-0.66,251.949-46.352,251.949-100.977
		C586.283,3187.973,539.201,3127.455,448.438,3102.161z"/>
</g>
<g id="calendar" style="display:none;">
	<g style="display:inline;">
		<rect x="439.357" y="-1814.841" style="fill:#010101;" width="124.969" height="93.753"/>
		<rect x="439.357" y="-1971.08" style="fill:#010101;" width="124.969" height="93.754"/>
		<rect x="439.357" y="-2127.326" style="fill:#010101;" width="124.969" height="93.75"/>
		<rect x="219.505" y="-2127.326" style="fill:#010101;" width="125.016" height="93.75"/>
		<rect x="219.505" y="-1971.08" style="fill:#010101;" width="125.016" height="93.754"/>
		<rect x="219.505" y="-1814.841" style="fill:#010101;" width="125.016" height="93.753"/>
		<rect x="657.763" y="-1814.841" style="fill:#010101;" width="125.008" height="93.753"/>
		<rect x="657.763" y="-1971.08" style="fill:#010101;" width="125.008" height="93.754"/>
		<rect x="657.763" y="-2127.326" style="fill:#010101;" width="125.008" height="93.75"/>
		<path style="fill:#010101;" d="M963.153-2409.853H745.95v-58.234c0-14.188-11.5-25.688-25.68-25.688
			c-14.188,0-25.688,11.5-25.688,25.688v58.234H525.817v-58.234c0-14.188-11.492-25.688-25.68-25.688s-25.688,11.5-25.688,25.688
			v58.234H307.7v-58.234c0-14.188-11.5-25.688-25.688-25.688s-25.688,11.5-25.688,25.688v58.234H37.122
			c-20.43,0-37.008,16.555-37.008,36.98v830.156c0,20.43,16.578,36.984,37.008,36.984h926.031c20.43,0,36.961-16.555,36.961-36.984
			v-830.156C1000.114-2393.299,983.583-2409.853,963.153-2409.853z M948.747-1557.103H51.489v-801.383h204.836v71.89
			c0,14.188,11.5,25.684,25.688,25.684s25.688-11.496,25.688-25.684v-71.89h166.75v71.89c0,14.188,11.5,25.684,25.688,25.684
			s25.68-11.496,25.68-25.684v-71.89h168.766v71.89c0,14.188,11.5,25.684,25.688,25.684c14.18,0,25.68-11.496,25.68-25.684v-71.89
			h202.797V-1557.103z"/>
	</g>
</g>
<g id="radio-selected" style="display:none;">
	<g style="display:inline;">
		<path d="M-750,0c-275.699,0-500,224.313-500,500.011S-1025.699,1000-750,1000s500-224.292,500-499.99S-474.301,0-750,0z M-750,937
			c-240.963,0-437-196.033-437-436.99C-1187,259.042-990.963,63-750,63s437,196.042,437,437.011C-313,740.968-509.037,937-750,937z"
			/>
		<path d="M-749.457,251.349c-138.135,0-250.001,111.899-250.001,250.003c0,138.139,111.866,250.003,250.001,250.003
			c138.086,0,250-111.864,250-250.003C-499.457,363.248-611.371,251.349-749.457,251.349z"/>
	</g>
</g>
<g id="radio-deselected">
	<g>
		<path d="M500,0C224.301,0,0,224.313,0,500.01S224.301,1000,500,1000s500-224.292,500-499.99S775.699,0,500,0z M500,937
			C259.037,937,63,740.968,63,500.01C63,259.042,259.037,63,500,63S937,259.042,937,500.01C937,740.968,740.963,937,500,937z"/>
	</g>
</g>
<g id="menu" style="display:none;">
	<g style="display:inline;">
		<path d="M-1499.366,1685.467h-1000v130.434h1000V1685.467 M-1499.366,1924.617h-1000v130.414h1000V1924.617 M-1499.366,1446.336
			h-1000v130.435h1000V1446.336"/>
	</g>
</g>
<g id="close" style="display:none;">
	<path style="display:inline;" d="M-374.984,2250l-375.012-375.004L-1125.008,2250l-124.988-124.986l375.012-375.002
		l-375.012-375.003L-1125.008,1250l375.012,375.002l375.012-374.98l124.988,124.985l-375.012,375.003l375.012,375.002L-374.984,2250
		z"/>
</g>
<g id="add" style="display:none;">
	<path style="display:inline;fill:#010101;" d="M428.992,2251v-428.578H0.414v-142.859h428.578V1251h142.859v428.562h428.562
		v142.859H571.852V2251H428.992z"/>
</g>
<g id="arrow" style="display:none;">
	<path style="display:inline;fill:#010101;" d="M-4999.115,2750.931l500,500l500-500H-4999.115z"/>
</g>
<g id="more" style="display:none;">
	<path style="display:inline;fill:#010101;" d="M-3249.112,2750.925c68.719,0,125-56.25,125-125s-56.281-125-125-125
		c-68.781,0-125,56.25-125,125S-3317.893,2750.925-3249.112,2750.925z M-3249.112,2875.925c-68.781,0-125,56.25-125,125
		c0,68.719,56.219,125,125,125c68.719,0,125-56.281,125-125C-3124.112,2932.175-3180.393,2875.925-3249.112,2875.925z
		 M-3249.112,3250.925c-68.781,0-125,56.281-125,125s56.219,125,125,125c68.719,0,125-56.281,125-125
		S-3180.393,3250.925-3249.112,3250.925z"/>
</g>
<g id="double-arrow" style="display:none;">
	<g style="display:inline;">
		<g>
			<path style="fill:#010101;" d="M-1935.52,2540.228l-102.942,108.567l333.635,352.071l-333.635,352.081l102.942,108.558
				l436.42-460.639L-1935.52,2540.228z M-2396.158,2540.228l-102.941,108.567l333.634,352.071l-333.634,352.081l102.941,108.558
				l436.42-460.639L-2396.158,2540.228z"/>
		</g>
	</g>
</g>
<g id="edit" style="display:none;">
	<polygon style="display:inline;" points="-941.306,3115.464 -941.306,3195.626 -861.302,3195.626 -625.324,2959.218 
		-705.329,2879.064 	"/>
	<path style="display:inline;" d="M-613.388,2817.081c-8.323-8.337-21.776-8.337-30.084,0l-39.048,39.119l80.004,80.153
		l39.049-39.118c8.307-8.338,8.307-21.801,0-30.146L-613.388,2817.081z"/>
</g>
<g id="lock" style="display:none;">
	<path style="display:inline;fill:#010101;" d="M-4337.083,4065.771c0-89.379-72.492-161.871-161.87-161.871
		c-89.44,0-161.854,72.492-161.854,161.871v104.748h323.786v-104.748H-4337.083z M-4147.82,4750.914h-702.393
		c-25.017,0-45.344-20.266-45.344-45.344v-489.705c0-25.018,20.266-45.284,45.344-45.284h45.301v-113.818
		c0-168.936,136.897-305.85,305.835-305.85c168.873,0,305.851,136.914,305.851,305.85v113.756h45.282
		c25.017,0,45.282,20.264,45.282,45.283v489.703C-4102.535,4730.648-4122.801,4750.914-4147.82,4750.914z"/>
</g>
<g id="checkbox-deselected" style="display:none;">
	<path style="display:inline;fill:#010101;" d="M-2897.435,3750.827h-703.374c-81.772,0-148.303,66.551-148.303,148.323v703.374
		c0,81.792,66.531,148.343,148.303,148.343h703.374c81.792,0,148.323-66.552,148.323-148.343V3899.15
		C-2749.112,3817.359-2815.623,3750.827-2897.435,3750.827z M-2811.28,4602.524c0,47.491-38.644,86.155-86.155,86.155h-703.374
		c-47.491,0-86.115-38.664-86.115-86.155V3899.15c0-47.511,38.624-86.135,86.115-86.135h703.374
		c47.511,0,86.155,38.624,86.155,86.135V4602.524z"/>
</g>
<g id="checkbox-selected" style="display:none;">
	<polygon style="display:inline;fill:#010101;" points="-2089.614,4311.025 -2227.964,4165.316 -2330.385,4273.165 
		-2089.614,4526.865 -1667.847,4082.8 -1770.609,3974.83 	"/>
	<path style="display:inline;fill:#010101;" d="M-1647.439,3750.827h-703.374c-81.772,0-148.303,66.551-148.303,148.323v703.374
		c0,81.792,66.531,148.343,148.303,148.343h703.374c81.792,0,148.323-66.552,148.323-148.343V3899.15
		C-1499.116,3817.359-1565.627,3750.827-1647.439,3750.827z M-1561.284,4602.524c0,47.491-38.644,86.155-86.155,86.155h-703.374
		c-47.491,0-86.115-38.664-86.115-86.155V3899.15c0-47.511,38.624-86.135,86.115-86.135h703.374
		c47.511,0,86.155,38.624,86.155,86.135V4602.524z"/>
</g>
</svg>
