<?xml version="1.0" encoding="iso-8859-1"?>
<!-- Generator: Adobe Illustrator 19.2.1, SVG Export Plug-In . SVG Version: 6.00 Build 0)  -->
<svg version="1.1" xmlns="http://www.w3.org/2000/svg" xmlns:xlink="http://www.w3.org/1999/xlink" x="0px" y="0px"
	 viewBox="0 0 1000 1000" style="enable-background:new 0 0 1000 1000;" xml:space="preserve">
<g id="Seperator" style="display:none;">
	<rect x="-1374.972" y="-1374.951" style="display:inline;fill:#F16667;fill-opacity:0.5;" width="1250.001" height="1249.997"/>
	<rect x="-124.972" y="-1374.951" style="display:inline;fill:#F16667;fill-opacity:0.5;" width="1250.001" height="1249.997"/>
	<rect x="1125.028" y="-1374.951" style="display:inline;fill:#F16667;fill-opacity:0.5;" width="1250.001" height="1249.997"/>
	<rect x="2375.028" y="-1374.951" style="display:inline;fill:#F16667;fill-opacity:0.5;" width="1250.001" height="1249.997"/>
	<rect x="3625.028" y="-1374.951" style="display:inline;fill:#F16667;fill-opacity:0.5;" width="1250.001" height="1249.997"/>
	<rect x="-1374.972" y="-124.95" style="display:inline;fill:#F16667;fill-opacity:0.5;" width="1250.001" height="1249.997"/>
	<rect x="-124.972" y="-124.95" style="display:inline;fill:#F16667;fill-opacity:0.5;" width="1250.001" height="1249.997"/>
	<rect x="1125.028" y="-124.95" style="display:inline;fill:#F16667;fill-opacity:0.5;" width="1250.001" height="1249.997"/>
	<rect x="2375.028" y="-124.95" style="display:inline;fill:#F16667;fill-opacity:0.5;" width="1250.001" height="1249.997"/>
	<rect x="3625.028" y="-124.95" style="display:inline;fill:#F16667;fill-opacity:0.5;" width="1250.001" height="1249.997"/>
	<rect x="-1374.972" y="1125.049" style="display:inline;fill:#F16667;fill-opacity:0.5;" width="1250.001" height="1249.997"/>
	<rect x="-124.972" y="1125.049" style="display:inline;fill:#F16667;fill-opacity:0.5;" width="1250.001" height="1249.997"/>
	<rect x="1125.028" y="1125.049" style="display:inline;fill:#F16667;fill-opacity:0.5;" width="1250.001" height="1249.997"/>
	<rect x="2375.028" y="1125.049" style="display:inline;fill:#F16667;fill-opacity:0.5;" width="1250.001" height="1249.997"/>
	<rect x="3625.028" y="1125.049" style="display:inline;fill:#F16667;fill-opacity:0.5;" width="1250.001" height="1249.997"/>
	<rect x="-1374.972" y="2375.049" style="display:inline;fill:#F16667;fill-opacity:0.5;" width="1250.001" height="1249.997"/>
	<rect x="-124.972" y="2375.049" style="display:inline;fill:#F16667;fill-opacity:0.5;" width="1250.001" height="1249.997"/>
	<rect x="1125.028" y="2375.049" style="display:inline;fill:#F16667;fill-opacity:0.5;" width="1250.001" height="1249.997"/>
	<rect x="2375.028" y="2375.049" style="display:inline;fill:#F16667;fill-opacity:0.5;" width="1250.001" height="1249.997"/>
	<rect x="3625.028" y="2375.049" style="display:inline;fill:#F16667;fill-opacity:0.5;" width="1250.001" height="1249.997"/>
	<rect x="-1374.972" y="3625.049" style="display:inline;fill:#F16667;fill-opacity:0.5;" width="1250.001" height="1249.997"/>
	<rect x="-124.972" y="3625.049" style="display:inline;fill:#F16667;fill-opacity:0.5;" width="1250.001" height="1249.997"/>
	<rect x="1125.028" y="3625.049" style="display:inline;fill:#F16667;fill-opacity:0.5;" width="1250.001" height="1249.997"/>
	<rect x="2375.028" y="3625.049" style="display:inline;fill:#F16667;fill-opacity:0.5;" width="1250.001" height="1249.997"/>
	<rect x="3625.028" y="3625.049" style="display:inline;fill:#F16667;fill-opacity:0.5;" width="1250.001" height="1249.997"/>
	<rect x="-1374.972" y="4875.045" style="display:inline;fill:#F16667;fill-opacity:0.5;" width="1250.001" height="1249.998"/>
	<rect x="-124.972" y="4875.045" style="display:inline;fill:#F16667;fill-opacity:0.5;" width="1250.001" height="1249.998"/>
	<rect x="1125.028" y="4875.045" style="display:inline;fill:#F16667;fill-opacity:0.5;" width="1250.001" height="1249.998"/>
	<rect x="2375.028" y="4875.045" style="display:inline;fill:#F16667;fill-opacity:0.5;" width="1250.001" height="1249.998"/>
	<rect x="3625.028" y="4875.045" style="display:inline;fill:#F16667;fill-opacity:0.5;" width="1250.001" height="1249.998"/>
	<rect x="-1374.972" y="6124.962" style="display:inline;fill:#F16667;fill-opacity:0.5;" width="1250.001" height="1249.998"/>
	<rect x="-124.972" y="6124.962" style="display:inline;fill:#F16667;fill-opacity:0.5;" width="1250.001" height="1249.998"/>
	<rect x="1125.028" y="6124.962" style="display:inline;fill:#F16667;fill-opacity:0.5;" width="1250.001" height="1249.998"/>
	<rect x="2375.028" y="6124.962" style="display:inline;fill:#F16667;fill-opacity:0.5;" width="1250.001" height="1249.998"/>
	<rect x="3625.028" y="6124.962" style="display:inline;fill:#F16667;fill-opacity:0.5;" width="1250.001" height="1249.998"/>
</g>
<g id="icons_-_1000pt" style="display:none;">
	<rect x="-1249.972" y="-1249.952" style="display:inline;fill:#7292CB;fill-opacity:0.5;" width="1000.001" height="1000"/>
	<rect x="0.028" y="-1249.952" style="display:inline;fill:#7292CB;fill-opacity:0.5;" width="1000.001" height="1000"/>
	<rect x="1250.028" y="-1249.952" style="display:inline;fill:#7292CB;fill-opacity:0.5;" width="1000.001" height="1000"/>
	<rect x="2500.028" y="-1249.952" style="display:inline;fill:#7292CB;fill-opacity:0.5;" width="1000.001" height="1000"/>
	<rect x="3750.028" y="-1249.952" style="display:inline;fill:#7292CB;fill-opacity:0.5;" width="1000.001" height="1000"/>
	<rect x="-1249.972" y="0.048" style="display:inline;fill:#7292CB;fill-opacity:0.5;" width="1000.001" height="1000"/>
	<rect x="0.028" y="0.048" style="display:inline;fill:#7292CB;fill-opacity:0.5;" width="1000.001" height="1000"/>
	<rect x="1250.028" y="0.048" style="display:inline;fill:#7292CB;fill-opacity:0.5;" width="1000.001" height="1000"/>
	<rect x="2500.028" y="0.048" style="display:inline;fill:#7292CB;fill-opacity:0.5;" width="1000.001" height="1000"/>
	<rect x="3750.028" y="0.048" style="display:inline;fill:#7292CB;fill-opacity:0.5;" width="1000.001" height="1000"/>
	<rect x="-1249.972" y="1250.048" style="display:inline;fill:#7292CB;fill-opacity:0.5;" width="1000.001" height="1000"/>
	<rect x="0.028" y="1250.048" style="display:inline;fill:#7292CB;fill-opacity:0.5;" width="1000.001" height="1000"/>
	<rect x="1250.028" y="1250.048" style="display:inline;fill:#7292CB;fill-opacity:0.5;" width="1000.001" height="1000"/>
	<rect x="2500.028" y="1250.048" style="display:inline;fill:#7292CB;fill-opacity:0.5;" width="1000.001" height="1000"/>
	<rect x="3750.028" y="1250.048" style="display:inline;fill:#7292CB;fill-opacity:0.5;" width="1000.001" height="1000"/>
	<rect x="-1249.972" y="2500.048" style="display:inline;fill:#7292CB;fill-opacity:0.5;" width="1000.001" height="1000"/>
	<rect x="0.028" y="2500.048" style="display:inline;fill:#7292CB;fill-opacity:0.5;" width="1000.001" height="1000"/>
	<rect x="1250.028" y="2500.048" style="display:inline;fill:#7292CB;fill-opacity:0.5;" width="1000.001" height="1000"/>
	<rect x="2500.028" y="2500.048" style="display:inline;fill:#7292CB;fill-opacity:0.5;" width="1000.001" height="1000"/>
	<rect x="3750.028" y="2500.048" style="display:inline;fill:#7292CB;fill-opacity:0.5;" width="1000.001" height="1000"/>
	<rect x="-1249.972" y="3750.048" style="display:inline;fill:#7292CB;fill-opacity:0.5;" width="1000.001" height="1000"/>
	<rect x="0.028" y="3750.048" style="display:inline;fill:#7292CB;fill-opacity:0.5;" width="1000.001" height="1000"/>
	<rect x="1250.028" y="3750.048" style="display:inline;fill:#7292CB;fill-opacity:0.5;" width="1000.001" height="1000"/>
	<rect x="2500.028" y="3750.048" style="display:inline;fill:#7292CB;fill-opacity:0.5;" width="1000.001" height="1000"/>
	<rect x="3750.028" y="3750.048" style="display:inline;fill:#7292CB;fill-opacity:0.5;" width="1000.001" height="1000"/>
	<rect x="-1249.972" y="5000.044" style="display:inline;fill:#7292CB;fill-opacity:0.5;" width="1000.001" height="1000.001"/>
	<rect x="0.028" y="5000.044" style="display:inline;fill:#7292CB;fill-opacity:0.5;" width="1000.001" height="1000.001"/>
	<rect x="1250.028" y="5000.044" style="display:inline;fill:#7292CB;fill-opacity:0.5;" width="1000.001" height="1000.001"/>
	<rect x="2500.028" y="5000.044" style="display:inline;fill:#7292CB;fill-opacity:0.5;" width="1000.001" height="1000.001"/>
	<rect x="3750.028" y="5000.044" style="display:inline;fill:#7292CB;fill-opacity:0.5;" width="1000.001" height="1000.001"/>
	<rect x="-1249.972" y="6250.028" style="display:inline;fill:#7292CB;fill-opacity:0.5;" width="1000.001" height="1000.001"/>
	<rect x="0.028" y="6250.028" style="display:inline;fill:#7292CB;fill-opacity:0.5;" width="1000.001" height="1000.001"/>
	<rect x="1250.028" y="6250.028" style="display:inline;fill:#7292CB;fill-opacity:0.5;" width="1000.001" height="1000.001"/>
	<rect x="2500.028" y="6250.028" style="display:inline;fill:#7292CB;fill-opacity:0.5;" width="1000.001" height="1000.001"/>
	<rect x="3750.028" y="6250.028" style="display:inline;fill:#7292CB;fill-opacity:0.5;" width="1000.001" height="1000.001"/>
</g>
<g id="dashboard" style="display:none;">
	<path style="display:inline;" d="M-749.975-1037.862c-241.235,0-437.497,196.261-437.497,437.497
		c0,32.433,3.829,64.711,11.031,96.368c0.776,3.412,11.128,41.957,11.128,41.957l100.441-27.983l-8.827-31.686l-68.612,19.115
		c-6.245-25.066-10.132-50.58-11.5-76.295h71.356v-32.89h-71.832c0.766-27.333,4.239-53.979,10.184-79.711l65.906,20.195
		l9.639-31.456l-66.885-20.489c7.474-23.381,17.006-45.834,28.406-67.162l62.354,36.677l16.679-28.362l-62.308-36.645
		c13.261-20.606,28.313-39.924,44.985-57.74l50.572,50.768l23.308-23.217l-50.518-50.725c15.754-14.333,32.695-27.367,50.569-39.096
		l34.817,56.59l9.682-5.954c36.031,84.278,122.001,284.191,138.656,312.15c14.114,23.794,44.901,31.605,68.734,17.426
		c23.791-14.119,31.597-44.891,17.423-68.727c-16.654-27.95-156.023-196.382-214.765-267.032l8.281-5.097l-34.67-56.349
		c21.725-11.862,44.674-21.717,68.569-29.479l20.288,65.919l31.445-9.675l-20.033-65.084c24.363-5.756,49.542-9.348,75.369-10.459
		v69.061h32.896v-69.126c26.259,0.982,51.868,4.492,76.631,10.268l-20.111,65.341l31.443,9.675l20.401-66.278
		c23.109,7.431,45.314,16.877,66.406,28.151l-35.702,58.036l28.012,17.234l36.025-58.55c19.301,12.423,37.534,26.374,54.407,41.802
		l-49.781,49.979l23.312,23.217l49.793-49.991c16.548,17.79,31.493,37.069,44.658,57.611l-61.202,35.997l16.68,28.362l61.181-35.985
		c11.136,20.945,20.49,42.961,27.845,65.874l-68.816,21.086l9.638,31.456l67.904-20.805c6.035,25.917,9.556,52.774,10.326,80.321
		h-73.008v32.89h72.531c-1.368,25.729-5.261,51.267-11.52,76.356l-69.043-19.236l-8.827,31.686l100.44,27.988l5.16-16.006
		c11.579-39.832,17.45-80.97,17.45-122.262C-312.472-841.601-508.734-1037.862-749.975-1037.862z M-758.057-622.854
		c3.854-2.285,8.237-3.497,12.675-3.497c8.823,0,16.777,4.514,21.28,12.068c6.97,11.747,3.102,26.973-8.628,33.949
		c-11.366,6.734-27.261,2.643-33.931-8.564C-773.607-600.649-769.738-615.883-758.057-622.854z"/>
</g>
<g id="account-details" style="display:none;">
	<path style="display:inline;" d="M827.435-993.643h-222.61v-53.523c0-14.459-11.762-26.219-26.227-26.219H421.71
		c-14.451,0-26.212,11.76-26.212,26.219v53.523H172.874c-14.451,0-26.213,11.764-26.213,26.219v488.396
		c0,14.459,11.762,26.219,26.213,26.219h654.562c14.451,0,26.225-11.76,26.225-26.219v-488.396
		C853.661-981.879,841.887-993.643,827.435-993.643z M428.767-1040.116h142.789v46.473H428.767V-1040.116z M820.39-960.374v138.565
		H556.167v-13.775c0-14.459-11.76-26.219-26.225-26.219H470.38c-14.464,0-26.226,11.76-26.226,26.219v13.775H179.931v-138.565
		H820.39z M522.897-828.533v45.468h-45.473v-45.468H522.897z M179.931-486.079v-302.46h264.224v12.523
		c0,14.456,11.762,26.22,26.226,26.22h59.562c14.465,0,26.225-11.764,26.225-26.22v-12.523H820.39v302.46H179.931z"/>
</g>
<g id="activity" style="display:none;">
	<path style="display:inline;" d="M1911.085-427.207c-6.937,0-13.199-4.339-15.616-10.936l-205.688-563.862l-107.547,357.847
		c-2.118,7.032-8.588,11.85-15.929,11.85h-299.333c-9.184,0-16.63-7.444-16.63-16.63c0-9.185,7.446-16.629,16.63-16.629h286.965
		l118.395-393.929c2.066-6.859,8.289-11.625,15.448-11.836c7.145-0.271,13.655,4.199,16.097,10.927l202.648,555.52l59.229-291.486
		c1.391-6.832,6.886-12.066,13.772-13.119c6.898-1.026,13.706,2.285,17.071,8.38l75.08,135.543h162.035
		c9.198,0,16.63,7.444,16.63,16.629c0,9.185-7.432,16.63-16.63,16.63h-171.831c-6.055,0-11.615-3.287-14.551-8.573l-57.97-104.651
		l-61.972,305.013c-1.481,7.289-7.627,12.706-15.057,13.264C1911.917-427.22,1911.5-427.207,1911.085-427.207z"/>
</g>
<g id="documents" style="display:none;">
	<g style="display:inline;">
		<rect x="2870.774" y="-809.603" width="349.513" height="33.288"/>
		<rect x="2870.774" y="-722.547" width="349.513" height="33.286"/>
		<rect x="2870.774" y="-634.846" width="349.513" height="33.287"/>
		<rect x="2870.774" y="-547.468" width="349.513" height="33.287"/>
		<path d="M3211.627-978.028v-89.782c0-14.475-11.781-26.24-26.241-26.24h-459.619c-14.459,0-26.213,11.766-26.213,26.24v549.689
			c0,14.473,11.754,26.239,26.213,26.239h63.713v60.814c0,14.47,11.782,26.24,26.24,26.24h459.62
			c14.459,0,26.214-11.77,26.214-26.24v-450.128v-6.891L3211.627-978.028z M3254.328-888.256h-71.514v-71.503L3254.328-888.256z
			 M2789.48-980.756v455.588h-56.639v-535.595h445.499v53.768h-2.575H2815.72C2801.262-1006.996,2789.48-995.23,2789.48-980.756z
			 M2822.767-438.114v-535.595h326.759v92.514c0,14.46,11.779,26.226,26.239,26.226h92.502v416.855H2822.767z"/>
	</g>
</g>
<g id="market-watch" style="display:none;">
	<path style="display:inline;" d="M4651.209-904.685l-31.447-118.071c-0.144-0.541-0.312-1.075-0.507-1.595
		c-2.756-7.273-8.164-13.038-15.236-16.241c-7.072-3.192-14.988-3.426-22.256-0.702c-0.52,0.193-1.026,0.414-1.533,0.661
		l-109.423,54.373c-8.229,4.095-11.583,14.078-7.487,22.309c4.068,8.224,14.053,11.584,22.307,7.501l79.094-39.307L4392.689-640.23
		l-273.443-198.539c-3.627-2.63-8.189-3.702-12.585-2.931c-4.42,0.755-8.345,3.265-10.893,6.95l-244.052,353.816
		c-5.213,7.566-3.314,17.935,4.251,23.148c2.887,1.987,6.175,2.945,9.438,2.945c5.278,0,10.479-2.51,13.715-7.191l234.367-339.789
		l275.743,200.208c3.991,2.885,9.034,3.882,13.831,2.672c4.773-1.205,8.777-4.46,10.92-8.894l181.781-375.695l23.285,87.413
		c1.988,7.442,8.71,12.363,16.068,12.363c1.416,0,2.859-0.182,4.289-0.565C4648.298-886.684,4653.576-895.803,4651.209-904.685z"/>
</g>
<g id="link" style="display:none;">
	<path style="display:inline;" d="M-554.273,496.061c23.587,22.139,36.612,51.679,36.612,83.176
		c0,31.463-13.025,61.02-36.612,83.123l-259.618,243.976c-23.622,22.14-55.03,34.34-88.552,34.34
		c-33.557,0-64.965-12.2-88.535-34.34l-80.505-75.688c-23.569-22.12-36.577-51.623-36.629-83.119
		c0-31.515,13.024-61.04,36.558-83.161l116.839-109.782l35.46,33.258l-116.837,109.732c-14.142,13.268-21.946,31.024-21.946,49.954
		c0,18.87,7.804,36.625,21.946,49.861l80.452,75.65c28.301,26.538,78.06,26.538,106.291,0l259.688-243.924
		c14.16-13.25,21.876-30.954,21.876-49.879c0-18.926-7.716-36.663-21.876-49.9l-80.524-75.682
		c-14.14-13.255-32.96-20.548-53.145-20.548c-20.165,0-39.038,7.293-53.093,20.548l-45.062,42.318l-35.391-33.259l45.028-42.354
		c23.534-22.14,54.961-34.29,88.517-34.29c33.454,0,64.915,12.149,88.536,34.29L-554.273,496.061z M-428.742,169.434l-80.504-75.665
		c-23.57-22.177-55.031-34.289-88.536-34.289c-33.556,0-64.982,12.112-88.586,34.289l-259.688,243.902
		c-23.553,22.176-36.577,51.748-36.577,83.23c0,31.459,13.024,61.053,36.577,83.138l80.503,75.687
		c23.624,22.14,55.05,34.326,88.554,34.326c33.539,0,65.018-12.187,88.621-34.326l45.237-42.494l-35.39-33.295l-45.272,42.544
		c-28.196,26.488-78.112,26.488-106.238,0l-80.627-75.663c-14.02-13.236-21.893-30.992-21.893-49.917
		c0-18.981,7.873-36.666,21.893-49.899l259.723-243.994c14.107-13.232,32.998-20.529,53.162-20.529
		c20.062,0,38.935,7.297,53.076,20.529l80.575,75.669c14.143,13.306,21.893,31.043,21.893,50.005c0,18.856-7.75,36.629-21.893,49.83
		l-116.559,109.5l35.443,33.276l116.452-109.5c23.621-22.09,36.63-51.679,36.682-83.143
		C-392.112,221.187-405.138,191.61-428.742,169.434z"/>
</g>
<g id="video">
	<path d="M932.568,850.68c-13.289,0-25.74-5.248-35.095-14.794L765.804,702.678v16.156c0,72.709-58.543,131.846-130.515,131.846
		H148.463C76.526,850.68,18,791.543,18,718.834V281.162c0-72.704,58.526-131.842,130.463-131.842h486.826
		c71.972,0,130.515,59.138,130.515,131.842v16.157l131.756-133.31c9.146-9.426,21.631-14.689,35.008-14.689
		c27.259,0,49.432,22.311,49.432,49.762v601.868C982,828.369,959.827,850.68,932.568,850.68z M720.97,593.635L929.385,804.48
		c0.578,0.598,1.644,1.436,3.184,1.436c2.57,0,4.667-2.236,4.667-4.966V199.082c0-2.761-2.097-4.999-4.667-4.999
		c-1.504,0-2.485,0.663-3.026,1.256L720.97,406.361l0.069-125.199c0-48.016-38.469-87.078-85.75-87.078H148.463
		c-47.248,0-85.699,39.062-85.699,87.078v437.673c0,48.021,38.451,87.082,85.699,87.082h486.826c47.282,0,85.75-39.061,85.75-87.082
		L720.97,593.635z"/>
</g>
<g id="print" style="display:none;">
	<path style="display:inline;" d="M1527.708,313.289h-44.775V53.239c0-19.45,15.827-35.296,35.276-35.296h463.761
		c19.449,0,35.278,15.846,35.278,35.296v260.05h-44.776V62.718h-444.764V313.289z M1609.038,867.139h282.087v-44.774h-282.087
		V867.139z M1609.038,779.16h282.087v-44.775h-282.087V779.16z M2250.081,348.756v401.057c0,19.451-15.83,35.296-35.278,35.296
		h-230.717l27.233,161.719c0,19.446-15.829,35.297-35.279,35.297h-451.919c-19.449,0-35.277-15.851-35.277-35.297l0.314-3.744
		l26.76-157.975h-230.558c-19.448,0-35.278-15.845-35.278-35.296V348.756c0-19.45,15.83-35.297,35.278-35.297h929.443
		C2234.25,313.459,2250.081,329.306,2250.081,348.756z M1964.618,937.347l-50.563-298.508h-327.946l-50.563,298.508H1964.618z
		 M2205.305,358.236h-910.449v382.097H1523.5l19.194-113.319c1.207-18.385,16.547-32.95,35.209-32.95h344.354
		c18.66,0,34,14.565,35.207,32.95l19.082,113.319h228.758V358.236z"/>
</g>
<g id="download" style="display:none;">
	<g style="display:inline;">
		<g>
			<path d="M3280.615,219.235h-96.064v-96.069L3280.615,219.235z M2691.32,59.696c-19.426,0-35.236,15.813-35.236,35.254v612.115
				v116.348v81.708c0,19.44,15.811,35.254,35.236,35.254h617.529c19.426,0,35.234-15.814,35.234-35.254V228.717v-9.256
				L3184.392,59.765L2691.32,59.696z M2700.805,895.651V104.419h439.021v124.298c0,19.427,15.809,35.24,35.238,35.24h124.297
				v631.694H2700.805z"/>
		</g>
		<path d="M3206.613,535.859l-36.389-36.407l-144.318,144.053V293.515h-51.643v349.991l-144.302-144.053l-36.389,36.407
			l206.529,206.529L3206.613,535.859z"/>
	</g>
</g>
<g id="chevron" style="display:none;">
	<g style="display:inline;">
		<path d="M-367.842,1449.429l-382.166,371.948l-382.119-371.948l-117.877,114.727l499.996,486.586l500.004-486.586
			L-367.842,1449.429z"/>
	</g>
</g>
<g id="alert" style="display:none;">
	<g style="display:inline;">
		<path d="M500.065,1249.967c-275.699,0-500,224.313-500,500.011s224.301,499.99,500,499.99c275.699,0,500-224.292,500-499.99
			S775.764,1249.967,500.065,1249.967z M500.065,2186.968c-240.962,0-437-196.033-437-436.99c0-240.968,196.038-437.011,437-437.011
			s437,196.042,437,437.011C937.065,1990.935,741.027,2186.968,500.065,2186.968z"/>
		<path d="M500.065,1466.067c-32.985,0-59.761,26.709-59.761,59.754c0,2.178,0.145,4.36,0.349,6.47l17.987,284.215
			c0,22.826,18.541,41.427,41.425,41.427c22.901,0,41.425-18.533,41.425-41.427l17.979-284.215c0.281-2.11,0.35-4.222,0.35-6.47
			C559.818,1492.844,533.118,1466.067,500.065,1466.067z"/>
		<path d="M450.201,1983.944c0,66.567,99.865,66.567,99.865,0C550.066,1917.378,450.201,1917.378,450.201,1983.944z"/>
	</g>
</g>
<g id="alert-filled" style="display:none;">
	<path style="display:inline;" d="M1750.086,1249.993c-276.139,0-500,223.862-500,500.009c0,276.129,223.861,499.992,500,499.992
		s500-223.862,500-499.992C2250.086,1473.855,2026.225,1249.993,1750.086,1249.993z M1697.468,1996.887
		c0-70.239,105.38-70.239,105.38,0C1802.848,2067.129,1697.468,2067.129,1697.468,1996.887z M1812.768,1520.299l-18.97,299.909
		c0,24.154-19.547,43.711-43.712,43.711c-24.148,0-43.713-19.628-43.713-43.711l-18.981-299.909
		c-0.215-2.23-0.367-4.528-0.367-6.831c0-34.87,28.254-63.05,63.061-63.05c34.877,0,63.051,28.255,63.051,63.05
		C1813.137,1515.841,1813.066,1518.069,1812.768,1520.299z"/>
</g>
<g id="info" style="display:none;">
	<path style="display:inline;" d="M3000.041,1249.754c-276.16,0-500.023,223.865-500.023,500.005
		c0,276.129,223.863,499.995,500.023,499.995c276.121,0,499.977-223.866,499.977-499.995
		C3500.017,1473.62,3276.162,1249.754,3000.041,1249.754z M3057.939,1965.986l-3.309,31.031
		c-86.961,53.924-208.832,38.794-158.055-92.049c18.703-48.253,87.18-140.367,67.172-192.953
		c-8.223-21.657-35.621-21.657-62.344-12.566l3.086-28.694c45.254-30.147,104.434-46.61,146.984-21.055
		c76.176,45.723-34.062,211.964-47.238,244.964C2976.919,1963.013,3010.662,1978.818,3057.939,1965.986z M3054.384,1595.394
		c-33.703,0-61.062-27.36-61.062-61.061c0-33.715,27.359-61.057,61.062-61.057c33.723,0,61.059,27.342,61.059,61.057
		C3115.443,1568.034,3088.107,1595.394,3054.384,1595.394z"/>
</g>
<g id="external-link" style="display:none;">
	<g style="display:inline;">
		<g>
			<g>
				<path style="fill:#010101;" d="M4073.142,1350.953l676.887,0.055v677.357l-226.639-226.159l-11.74-11.713l-11.723,11.729
					l-346.59,346.899h-403.309l548.877-549.202l11.74-11.746l-11.74-11.739L4073.142,1350.953"/>
			</g>
		</g>
	</g>
</g>
<g id="custom-column" style="display:none;">
	<path style="display:inline;" d="M995.168,3069.388c3.117-22.68,4.852-45.797,4.852-69.344c0-23.555-1.734-46.672-4.852-69.352
		l-117.219-26.492c-9.352-36.883-23.984-71.688-42.945-103.547l64.242-101.727c-28.055-36.992-61.039-70.039-98.094-98.07
		l-101.727,64.266c-31.859-19.008-66.664-33.617-103.547-42.945l-26.492-117.242c-22.68-3.141-45.797-4.891-69.344-4.891
		c-23.555,0-46.664,1.75-69.352,4.891L404.2,2622.201c-36.883,9.305-71.602,23.914-103.461,42.922l-101.727-64.266
		c-37.055,28.031-70.125,61.078-98.086,98.07l64.234,101.727c-19.047,31.859-33.672,66.664-42.938,103.547L4.911,2930.693
		c-3.117,22.68-4.852,45.797-4.852,69.352c0,23.547,1.734,46.664,4.852,69.344l117.312,26.469
		c9.266,36.93,23.891,71.688,42.938,103.547l-64.234,101.75c27.961,37.008,61.031,70.039,98.086,98.023l101.727-64.219
		c31.773,18.984,66.578,33.594,103.461,42.922l26.492,117.289c22.688,3.094,45.797,4.875,69.352,4.875
		c23.547,0,46.664-1.781,69.344-4.875l26.492-117.266c36.883-9.352,71.688-23.938,103.547-42.945l101.727,64.219
		c37.055-27.984,70.039-61.016,98.094-98.023l-64.242-101.75c18.961-31.859,33.594-66.617,42.945-103.547L995.168,3069.388z
		 M500.043,3283.662c-156.703,0-283.625-126.961-283.625-283.641s126.922-283.672,283.625-283.672s283.711,126.992,283.711,283.672
		S656.747,3283.662,500.043,3283.662z"/>
</g>
<g id="check" style="display:none;">
	<g style="display:inline;">
		<polygon style="fill-rule:evenodd;clip-rule:evenodd;" points="1659.489,3060.246 1521.153,2914.556 1418.734,3022.416 
			1659.489,3276.078 2081.251,2832.021 1978.497,2724.074 		"/>
	</g>
</g>
<g id="accounts-mobile" style="display:none;">
	<g style="display:inline;">
		<path d="M-896.054,3933.536c-195.015,0-353.68,158.652-353.68,353.668c0,195.033,158.665,353.694,353.68,353.694
			c195.018,0,353.669-158.661,353.669-353.694C-542.385,4092.188-701.036,3933.536-896.054,3933.536z M-896.054,4612.793
			c-179.522,0-325.571-146.063-325.571-325.589c0-179.508,146.049-325.562,325.571-325.562
			c179.511,0,325.563,146.053,325.563,325.562C-570.491,4466.73-716.544,4612.793-896.054,4612.793z"/>
		<path d="M-824.58,4262.407c-11.417-9.057-32.581-19.982-63.485-32.8c-17.418-7.097-28.957-13.778-34.668-20.038
			c-5.844-6.134-8.783-12.325-8.783-18.596c0-7.369,3.309-13.887,9.924-19.53c6.615-5.64,15.221-8.454,25.786-8.454
			c17.979,0,36.149,9.471,54.513,28.409l40.322-39.278c-12.82-12.942-23.909-22.123-33.323-27.558
			c-9.388-5.435-20.833-9.743-34.337-12.955V4088h-39.279v20.891c-23.387,1.124-42.75,9.167-58.051,24.127
			c-15.328,14.956-22.977,32.964-22.977,53.988c0,12.667,2.884,24.608,8.66,35.821c5.777,11.199,14.508,21.299,26.199,30.273
			c11.707,8.978,34.119,21.137,67.273,36.454c16.279,7.52,27.285,14.904,32.995,22.136c5.57,7.232,8.343,15.66,8.343,25.265
			c0,11.418-4.336,21.343-13.037,29.768c-8.699,8.426-19.13,12.639-31.236,12.639c-23.81,0-48.445-13.585-73.941-40.733
			l-39.664,40.733c15.025,16.14,31.316,29.095,48.857,38.84c12.817,7.107,28.326,11.693,46.578,13.792v54.498h39.279v-55.762
			c19.35-4.034,34.171-9.948,44.463-17.744c10.324-7.795,18.75-18.392,25.281-31.756c6.533-13.369,9.826-27.917,9.826-43.643
			c0-15.728-3.074-29.932-9.193-42.602C-804.375,4282.308-813.162,4271.45-824.58,4262.407z"/>
	</g>
</g>
<g id="accounts-mobile-selected" style="display:none;">
	<path style="display:inline;" d="M-896.054,2683.091c-195.015,0-353.68,158.652-353.68,353.668
		c0,195.033,158.665,353.694,353.68,353.694c195.018,0,353.669-158.661,353.669-353.694
		C-542.385,2841.744-701.036,2683.091-896.054,2683.091z M-798.887,3130.785c-6.531,13.365-14.957,23.961-25.281,31.756
		c-10.292,7.796-25.113,13.71-44.463,17.744v55.762h-39.279v-54.498c-18.252-2.099-33.761-6.685-46.578-13.792
		c-17.541-9.745-33.832-22.701-48.857-38.84l39.664-40.733c25.496,27.148,50.131,40.733,73.941,40.733
		c12.107,0,22.537-4.213,31.236-12.639c8.701-8.425,13.037-18.35,13.037-29.768c0-9.605-2.773-18.033-8.343-25.265
		c-5.71-7.232-16.716-14.617-32.995-22.136c-33.154-15.317-55.566-27.476-67.273-36.454c-11.691-8.974-20.422-19.074-26.199-30.273
		c-5.776-11.212-8.66-23.154-8.66-35.821c0-21.024,7.648-39.032,22.977-53.988c15.301-14.96,34.664-23.003,58.051-24.127v-20.891
		h39.279v23.607c13.504,3.212,24.949,7.521,34.337,12.955c9.414,5.435,20.503,14.616,33.323,27.558l-40.322,39.278
		c-18.363-18.938-36.533-28.409-54.513-28.409c-10.565,0-19.171,2.813-25.786,8.454c-6.615,5.643-9.924,12.161-9.924,19.53
		c0,6.271,2.939,12.462,8.783,18.596c5.711,6.26,17.25,12.941,34.668,20.038c30.904,12.818,52.068,23.744,63.485,32.8
		c11.418,9.043,20.204,19.901,26.325,32.578c6.119,12.67,9.193,26.874,9.193,42.602
		C-789.061,3102.868-792.354,3117.416-798.887,3130.785z"/>
</g>
<g id="broker-mobile" style="display:none;">
	<g style="display:inline;">
		<path d="M758.264,3859.741H528.482c-70.423,0-112.054,26.047-135.007,84.46l26.181,10.286
			c18.597-47.318,50.12-66.615,108.826-66.615h229.781c75.324,0,132.135,53.258,132.135,123.885v75.546
			c0,74.569-59.146,137.576-129.141,137.576h-62.69l-103.95,93.627l-13.927-93.627h-55.862v28.13h31.604l18.076,121.468
			l134.855-121.468h51.894c85.241,0,157.271-75.882,157.271-165.706v-75.546C918.528,3926.516,848.134,3859.741,758.264,3859.741z"
			/>
		<path d="M447.581,4351.278l-12.884-4.52c-26.759-13.523-31.73-13.921-32.103-44.49c0.938-1.07,14.851-13.465,19.943-19.209
			c47.843-54.557,40.316-147.711,39.436-156.097c-1.728-36.13-11.948-62.771-26.426-82.351c-1.058-1.447-2.087-2.884-3.146-4.244
			c-1.03-1.257-2.071-2.457-3.16-3.639c-10.492-12.129-22.704-20.939-35.408-26.929c-19.257-9.384-39.449-13-56.205-13
			c-1.403,0-2.746,0.025-4.095,0.075c-1.305-0.05-2.637-0.07-3.98-0.07c-13.669-0.005-29.835,2.48-45.933,8.647
			c-20.304,7.218-40.272,20.803-55.041,43.378c-0.316,0.492-0.657,0.98-0.974,1.489c-1.483,2.335-2.912,4.786-4.257,7.308
			c-1.514,2.76-2.941,5.609-4.314,8.577c-0.232,0.536-0.469,1.077-0.743,1.642c-7.154,16.209-12.043,35.588-13.171,59.116
			c-0.837,8.386-9.244,101.54,39.407,156.097c5.094,5.744,18.9,18.139,19.805,19.209c-0.369,30.569-5.341,30.967-32.099,44.49
			l-12.854,4.52c-90.782,25.294-137.853,85.812-137.853,188.102c0,54.625,71.273,100.316,251.95,100.977
			c180.662-0.66,251.948-46.352,251.948-100.977C585.427,4437.09,538.346,4376.572,447.581,4351.278z M333.588,4612.225
			c-165.278-0.604-223.93-39.621-223.93-72.846c0-87.551,37.266-138.707,117.261-161.002l0.907-0.254l0.88-0.308l12.855-4.521
			l1.73-0.603l1.637-0.826l4.792-2.402c29.34-14.67,42.238-25.431,42.746-66.85l0.123-10.502l-6.772-8.014
			c-1.373-1.613-2.458-2.625-6.494-6.388c-3.643-3.384-11.198-10.431-13.808-13.37c-40.767-45.719-32.772-130.977-32.401-134.581
			l0.068-0.722l0.027-0.727c0.881-18.174,4.464-34.565,10.662-48.742c0.301-0.659,0.56-1.237,0.684-1.545
			c1.113-2.381,2.252-4.676,3.6-7.141c1.016-1.891,2.086-3.733,3.407-5.79l0.559-0.866c10.017-15.322,23.791-26.181,41.566-32.506
			c11.414-4.381,24.161-6.791,35.865-6.785c0.999,0,1.99,0.015,2.952,0.048l1.028,0.042l1.017-0.042
			c1.005-0.033,2.034-0.054,3.078-0.054c8.597,0,25.74,1.325,44.214,10.315c9.984,4.709,18.791,11.407,26.125,19.888l0.274,0.314
			l0.29,0.311c0.645,0.7,1.263,1.416,1.88,2.155c0.619,0.812,1.223,1.649,1.839,2.495l0.673,0.927
			c12.584,17.024,19.644,39.558,20.964,66.976l0.027,0.795l0.081,0.789c2.541,24.208,1.62,95.58-32.5,134.492
			c-2.58,2.918-10.601,10.328-14.036,13.494c-3.324,3.078-5.617,5.385-6.07,5.907l-7.06,8.091l0.138,10.734
			c0.507,41.419,13.405,52.18,42.743,66.85l4.795,2.402l1.647,0.826l1.732,0.61l12.884,4.519l0.863,0.311l0.893,0.246
			c80.011,22.295,117.275,73.451,117.275,161.002C557.3,4572.604,498.661,4611.621,333.588,4612.225z"/>
	</g>
</g>
<g id="broker-mobile-selected" style="display:none;">
	<path style="display:inline;" d="M4508.263,5109.738h-229.781c-70.422,0-112.053,26.047-135.006,84.46l26.18,10.286
		c18.598-47.318,50.121-66.615,108.826-66.615h229.781c75.324,0,132.135,53.258,132.135,123.885v75.546
		c0,74.569-59.146,137.576-129.141,137.576h-62.689l-103.949,93.627l-13.928-93.627h-55.861v28.13h31.604l18.076,121.468
		l134.855-121.468h51.893c85.242,0,157.271-75.882,157.271-165.706v-75.546C4668.529,5176.513,4598.134,5109.738,4508.263,5109.738z
		"/>
	<path style="display:inline;" d="M4197.582,5601.275l-12.885-4.52c-26.758-13.523-31.73-13.921-32.102-44.49
		c0.938-1.07,14.85-13.465,19.943-19.209c47.842-54.557,40.316-147.711,39.436-156.097c-1.729-36.13-11.949-62.771-26.426-82.351
		c-1.059-1.447-2.088-2.884-3.146-4.244c-1.031-1.257-2.072-2.457-3.16-3.639c-10.492-12.129-22.705-20.939-35.408-26.929
		c-19.258-9.384-39.449-13-56.205-13c-1.404,0-2.746,0.025-4.096,0.075c-1.305-0.05-2.637-0.07-3.98-0.07
		c-13.668-0.005-29.834,2.48-45.932,8.647c-20.305,7.218-40.273,20.803-55.041,43.378c-0.316,0.492-0.658,0.98-0.975,1.489
		c-1.482,2.335-2.912,4.786-4.256,7.308c-1.514,2.76-2.941,5.609-4.314,8.577c-0.232,0.536-0.469,1.077-0.742,1.642
		c-7.154,16.209-12.043,35.588-13.172,59.116c-0.836,8.386-9.244,101.54,39.408,156.097c5.094,5.744,18.9,18.139,19.805,19.209
		c-0.369,30.569-5.342,30.967-32.1,44.49l-12.854,4.52c-90.781,25.294-137.852,85.812-137.852,188.102
		c0,54.625,71.273,100.316,251.949,100.977c180.662-0.66,251.949-46.352,251.949-100.977
		C4335.427,5687.087,4288.345,5626.569,4197.582,5601.275z"/>
</g>
<g id="calendar" style="display:none;">
	<g style="display:inline;">
		<rect x="4188.5" y="684.273" style="fill:#010101;" width="124.969" height="93.753"/>
		<rect x="4188.5" y="528.034" style="fill:#010101;" width="124.969" height="93.754"/>
		<rect x="4188.5" y="371.788" style="fill:#010101;" width="124.969" height="93.75"/>
		<rect x="3968.649" y="371.788" style="fill:#010101;" width="125.016" height="93.75"/>
		<rect x="3968.649" y="528.034" style="fill:#010101;" width="125.016" height="93.754"/>
		<rect x="3968.649" y="684.273" style="fill:#010101;" width="125.016" height="93.753"/>
		<rect x="4406.907" y="684.273" style="fill:#010101;" width="125.008" height="93.753"/>
		<rect x="4406.907" y="528.034" style="fill:#010101;" width="125.008" height="93.754"/>
		<rect x="4406.907" y="371.788" style="fill:#010101;" width="125.008" height="93.75"/>
		<path style="fill:#010101;" d="M4712.297,89.261h-217.203V31.027c0-14.188-11.5-25.688-25.68-25.688
			c-14.188,0-25.688,11.5-25.688,25.688v58.234h-168.766V31.027c0-14.188-11.492-25.688-25.68-25.688s-25.688,11.5-25.688,25.688
			v58.234h-166.75V31.027c0-14.188-11.5-25.688-25.688-25.688s-25.688,11.5-25.688,25.688v58.234h-219.203
			c-20.43,0-37.008,16.555-37.008,36.98v830.156c0,20.43,16.578,36.984,37.008,36.984h926.031c20.43,0,36.961-16.555,36.961-36.984
			V126.241C4749.258,105.815,4732.727,89.261,4712.297,89.261z M4697.891,942.011h-897.258V140.628h204.836v71.89
			c0,14.188,11.5,25.684,25.688,25.684s25.688-11.496,25.688-25.684v-71.89h166.75v71.89c0,14.188,11.5,25.684,25.688,25.684
			s25.68-11.496,25.68-25.684v-71.89h168.766v71.89c0,14.188,11.5,25.684,25.688,25.684c14.18,0,25.68-11.496,25.68-25.684v-71.89
			h202.797V942.011z"/>
	</g>
</g>
<g id="radio-selected" style="display:none;">
	<g style="display:inline;">
		<path d="M2999.144,2499.114c-275.699,0-500,224.313-500,500.011s224.301,499.99,500,499.99s500-224.292,500-499.99
			S3274.843,2499.114,2999.144,2499.114z M2999.144,3436.114c-240.963,0-437-196.033-437-436.99
			c0-240.968,196.037-437.011,437-437.011s437,196.042,437,437.011C3436.144,3240.082,3240.107,3436.114,2999.144,3436.114z"/>
		<path d="M2999.687,2750.463c-138.135,0-250.001,111.899-250.001,250.003c0,138.139,111.866,250.003,250.001,250.003
			c138.086,0,250-111.864,250-250.003C3249.687,2862.362,3137.773,2750.463,2999.687,2750.463z"/>
	</g>
</g>
<g id="radio-deselected" style="display:none;">
	<g style="display:inline;">
		<path d="M4249.144,2499.114c-275.699,0-500,224.313-500,500.011s224.301,499.99,500,499.99s500-224.292,500-499.99
			S4524.843,2499.114,4249.144,2499.114z M4249.144,3436.114c-240.963,0-437-196.033-437-436.99
			c0-240.968,196.037-437.011,437-437.011s437,196.042,437,437.011C4686.144,3240.082,4490.107,3436.114,4249.144,3436.114z"/>
	</g>
</g>
<g id="menu" style="display:none;">
	<g style="display:inline;">
		<path d="M2249.778,4184.581h-1000v130.434h1000V4184.581 M2249.778,4423.731h-1000v130.414h1000V4423.731 M2249.778,3945.45h-1000
			v130.435h1000V3945.45"/>
	</g>
</g>
<g id="close" style="display:none;">
	<path style="display:inline;" d="M3374.16,4749.114l-375.012-375.004l-375.012,375.004l-124.988-124.986l375.012-375.002
		l-375.012-375.003l124.988-125.008l375.012,375.002l375.012-374.98l124.988,124.985l-375.012,375.003l375.012,375.002
		L3374.16,4749.114z"/>
</g>
<g id="add" style="display:none;">
	<path style="display:inline;fill:#010101;" d="M4178.136,4750.114v-428.578h-428.578v-142.859h428.578v-428.562h142.859v428.562
		h428.562v142.859h-428.562v428.578H4178.136z"/>
</g>
<g id="arrow" style="display:none;">
	<path style="display:inline;fill:#010101;" d="M-1249.971,5250.045l500,500l500-500H-1249.971z"/>
</g>
<g id="more" style="display:none;">
	<path style="display:inline;fill:#010101;" d="M500.032,5250.039c68.719,0,125-56.25,125-125s-56.281-125-125-125
		c-68.781,0-125,56.25-125,125S431.251,5250.039,500.032,5250.039z M500.032,5375.039c-68.781,0-125,56.25-125,125
		c0,68.719,56.219,125,125,125c68.719,0,125-56.281,125-125C625.032,5431.289,568.751,5375.039,500.032,5375.039z M500.032,5750.039
		c-68.781,0-125,56.281-125,125s56.219,125,125,125c68.719,0,125-56.281,125-125S568.751,5750.039,500.032,5750.039z"/>
</g>
<g id="double-arrow" style="display:none;">
	<g style="display:inline;">
		<g>
			<path style="fill:#010101;" d="M1813.625,5039.342l-102.942,108.567l333.635,352.071l-333.635,352.081l102.942,108.558
				l436.42-460.639L1813.625,5039.342z M1352.986,5039.342l-102.941,108.567l333.634,352.071l-333.634,352.081l102.941,108.558
				l436.42-460.639L1352.986,5039.342z"/>
		</g>
	</g>
</g>
<g id="edit" style="display:none;">
	<polygon style="display:inline;" points="2807.838,5614.578 2807.838,5694.74 2887.842,5694.74 3123.82,5458.332 
		3043.815,5378.178 	"/>
	<path style="display:inline;" d="M3135.756,5316.195c-8.323-8.337-21.776-8.337-30.084,0l-39.048,39.119l80.004,80.153
		l39.049-39.118c8.307-8.338,8.307-21.801,0-30.146L3135.756,5316.195z"/>
</g>
<g id="lock" style="display:none;">
	<path style="display:inline;fill:#010101;" d="M-587.939,6564.885c0-89.379-72.492-161.871-161.87-161.871
		c-89.44,0-161.854,72.492-161.854,161.871v104.748h323.786v-104.748H-587.939z M-398.676,7250.028h-702.393
		c-25.017,0-45.344-20.266-45.344-45.344v-489.705c0-25.019,20.266-45.284,45.344-45.284h45.301v-113.817
		c0-168.936,136.897-305.85,305.835-305.85c168.873,0,305.85,136.914,305.85,305.85v113.756h45.282
		c25.017,0,45.282,20.264,45.282,45.282v489.703C-353.391,7229.762-373.657,7250.028-398.676,7250.028z"/>
</g>
<g id="checkbox-deselected" style="display:none;">
	<path style="display:inline;fill:#010101;" d="M851.709,6249.941H148.335c-81.772,0-148.303,66.551-148.303,148.323v703.374
		c0,81.792,66.531,148.343,148.303,148.343h703.374c81.792,0,148.323-66.551,148.323-148.343v-703.374
		C1000.032,6316.473,933.521,6249.941,851.709,6249.941z M937.864,7101.638c0,47.491-38.644,86.155-86.155,86.155H148.335
		c-47.491,0-86.115-38.664-86.115-86.155v-703.374c0-47.511,38.624-86.135,86.115-86.135h703.374
		c47.511,0,86.155,38.624,86.155,86.135V7101.638z"/>
</g>
<g id="checkbox-selected" style="display:none;">
	<polygon style="display:inline;fill:#010101;" points="1659.531,6810.139 1521.18,6664.43 1418.759,6772.279 1659.531,7025.979 
		2081.297,6581.914 1978.535,6473.944 	"/>
	<path style="display:inline;fill:#010101;" d="M2101.705,6249.941h-703.374c-81.772,0-148.303,66.551-148.303,148.323v703.374
		c0,81.792,66.531,148.343,148.303,148.343h703.374c81.792,0,148.323-66.551,148.323-148.343v-703.374
		C2250.028,6316.473,2183.517,6249.941,2101.705,6249.941z M2187.86,7101.638c0,47.491-38.644,86.155-86.155,86.155h-703.374
		c-47.491,0-86.115-38.664-86.115-86.155v-703.374c0-47.511,38.624-86.135,86.115-86.135h703.374
		c47.511,0,86.155,38.624,86.155,86.135V7101.638z"/>
</g>
</svg>
