<svg style="position: absolute; width: 0; height: 0;" width="0" height="0" version="1.1" xmlns="http://www.w3.org/2000/svg" xmlns:xlink="http://www.w3.org/1999/xlink">
<defs>
<symbol id="icon-dashboard" viewBox="0 0 32 32">
<title>dashboard</title>
<path class="path1" d="M16 6.787c-7.72 0-14 6.28-14 14 0 1.038 0.123 2.071 0.353 3.084 0.025 0.109 0.356 1.343 0.356 1.343l3.214-0.895-0.282-1.014-2.196 0.612c-0.2-0.802-0.324-1.619-0.368-2.441h2.283v-1.052h-2.299c0.025-0.875 0.136-1.727 0.326-2.551l2.109 0.646 0.308-1.007-2.14-0.656c0.239-0.748 0.544-1.467 0.909-2.149l1.995 1.174 0.534-0.908-1.994-1.173c0.424-0.659 0.906-1.278 1.44-1.848l1.618 1.625 0.746-0.743-1.617-1.623c0.504-0.459 1.046-0.876 1.618-1.251l1.114 1.811 0.31-0.191c1.153 2.697 3.904 9.094 4.437 9.989 0.452 0.761 1.437 1.011 2.2 0.558 0.761-0.452 1.011-1.436 0.558-2.199-0.533-0.894-4.993-6.284-6.872-8.545l0.265-0.163-1.109-1.803c0.695-0.38 1.43-0.695 2.194-0.943l0.649 2.109 1.006-0.31-0.641-2.083c0.78-0.184 1.585-0.299 2.412-0.335v2.21h1.053v-2.212c0.84 0.031 1.66 0.144 2.452 0.329l-0.644 2.091 1.006 0.31 0.653-2.121c0.739 0.238 1.45 0.54 2.125 0.901l-1.142 1.857 0.896 0.552 1.153-1.874c0.618 0.398 1.201 0.844 1.741 1.338l-1.593 1.599 0.746 0.743 1.593-1.6c0.53 0.569 1.008 1.186 1.429 1.844l-1.958 1.152 0.534 0.908 1.958-1.152c0.356 0.67 0.656 1.375 0.891 2.108l-2.202 0.675 0.308 1.007 2.173-0.666c0.193 0.829 0.306 1.689 0.33 2.57h-2.336v1.052h2.321c-0.044 0.823-0.168 1.641-0.369 2.443l-2.209-0.616-0.282 1.014 3.214 0.896 0.165-0.512c0.371-1.275 0.558-2.591 0.558-3.912 0-7.72-6.28-14-14-14zM15.741 20.067c0.123-0.073 0.264-0.112 0.406-0.112 0.282 0 0.537 0.144 0.681 0.386 0.223 0.376 0.099 0.863-0.276 1.086-0.364 0.215-0.872 0.085-1.086-0.274-0.222-0.376-0.098-0.864 0.275-1.087z"></path>
</symbol>
<symbol id="icon-account-details" viewBox="0 0 32 32">
<title>account-details</title>
<path class="path1" d="M26.473 8.623h-7.124v-1.713c0-0.463-0.376-0.839-0.839-0.839h-5.020c-0.462 0-0.839 0.376-0.839 0.839v1.713h-7.124c-0.462 0-0.839 0.376-0.839 0.839v15.629c0 0.463 0.376 0.839 0.839 0.839h20.946c0.462 0 0.839-0.376 0.839-0.839v-15.629c0-0.463-0.377-0.839-0.839-0.839zM13.715 7.135h4.569v1.487h-4.569v-1.487zM26.247 9.687v4.434h-8.455v-0.441c0-0.463-0.376-0.839-0.839-0.839h-1.906c-0.463 0-0.839 0.376-0.839 0.839v0.441h-8.455v-4.434h20.495zM16.728 13.906v1.455h-1.455v-1.455h1.455zM5.753 24.865v-9.679h8.455v0.401c0 0.463 0.376 0.839 0.839 0.839h1.906c0.463 0 0.839-0.376 0.839-0.839v-0.401h8.455v9.679h-20.495z"></path>
</symbol>
<symbol id="icon-activity" viewBox="0 0 32 32">
<title>activity</title>
<path class="path1" d="M21.144 26.306c-0.222 0-0.422-0.139-0.5-0.35l-6.582-18.044-3.441 11.451c-0.068 0.225-0.275 0.379-0.51 0.379h-9.579c-0.294 0-0.532-0.238-0.532-0.532s0.238-0.532 0.532-0.532h9.183l3.789-12.606c0.066-0.22 0.265-0.372 0.494-0.379 0.229-0.009 0.437 0.134 0.515 0.35l6.485 17.777 1.895-9.328c0.044-0.219 0.22-0.386 0.441-0.42s0.439 0.073 0.546 0.268l2.403 4.337h5.185c0.294 0 0.532 0.238 0.532 0.532s-0.238 0.532-0.532 0.532h-5.499c-0.194 0-0.372-0.105-0.466-0.274l-1.855-3.349-1.983 9.76c-0.047 0.233-0.244 0.407-0.482 0.424-0.013 0.001-0.027 0.002-0.040 0.002z"></path>
</symbol>
<symbol id="icon-documents" viewBox="0 0 32 32">
<title>documents</title>
<path class="path1" d="M11.847 14.075h11.184v1.065h-11.184v-1.065z"></path>
<path class="path2" d="M11.847 16.86h11.184v1.065h-11.184v-1.065z"></path>
<path class="path3" d="M11.847 19.667h11.184v1.065h-11.184v-1.065z"></path>
<path class="path4" d="M11.847 22.463h11.184v1.065h-11.184v-1.065z"></path>
<path class="path5" d="M22.754 8.685v-2.873c0-0.463-0.377-0.84-0.84-0.84h-14.708c-0.463 0-0.839 0.377-0.839 0.84v17.59c0 0.463 0.376 0.84 0.839 0.84h2.039v1.946c0 0.463 0.377 0.84 0.84 0.84h14.708c0.463 0 0.839-0.377 0.839-0.84v-14.625l-2.878-2.878zM24.121 11.558h-2.288v-2.288l2.288 2.288zM9.246 8.598v14.579h-1.812v-17.139h14.256v1.721h-11.604c-0.463 0-0.84 0.376-0.84 0.84zM10.311 25.962v-17.139h10.456v2.96c0 0.463 0.377 0.839 0.84 0.839h2.96v13.339h-14.256z"></path>
</symbol>
<symbol id="icon-market-watch" viewBox="0 0 32 32">
<title>market-watch</title>
<path class="path1" d="M28.83 11.018l-1.006-3.778c-0.005-0.017-0.010-0.034-0.016-0.051-0.088-0.233-0.261-0.417-0.488-0.52s-0.48-0.11-0.712-0.022c-0.017 0.006-0.033 0.013-0.049 0.021l-3.502 1.74c-0.263 0.131-0.371 0.45-0.24 0.714s0.45 0.371 0.714 0.24l2.531-1.258-5.505 11.377-8.75-6.353c-0.116-0.084-0.262-0.118-0.403-0.094s-0.267 0.104-0.349 0.222l-7.81 11.322c-0.167 0.242-0.106 0.574 0.136 0.741 0.092 0.064 0.198 0.094 0.302 0.094 0.169 0 0.335-0.080 0.439-0.23l7.5-10.873 8.824 6.407c0.128 0.092 0.289 0.124 0.443 0.085s0.281-0.143 0.349-0.285l5.817-12.022 0.745 2.797c0.064 0.238 0.279 0.396 0.514 0.396 0.045 0 0.091-0.006 0.137-0.018 0.285-0.076 0.453-0.368 0.378-0.652z"></path>
</symbol>
<symbol id="icon-alert-filled" viewBox="0 0 32 32">
<title>alert-filled</title>
<path class="path1" d="M16 0c-8.836 0-16 7.164-16 16s7.164 16 16 16 16-7.164 16-16c0-8.837-7.164-16-16-16zM14.316 23.901c0-2.248 3.372-2.248 3.372 0s-3.372 2.248-3.372 0zM18.006 8.65l-0.607 9.597c0 0.773-0.625 1.399-1.399 1.399s-1.399-0.628-1.399-1.399l-0.607-9.597c-0.007-0.071-0.012-0.145-0.012-0.219 0-1.116 0.904-2.018 2.018-2.018 1.116 0 2.018 0.904 2.018 2.018-0 0.076-0.002 0.147-0.012 0.219z"></path>
</symbol>
<symbol id="icon-alert" viewBox="0 0 32 32">
<title>alert</title>
<path class="path1" d="M16 0c-8.822 0-16 7.178-16 16s7.178 16 16 16c8.822 0 16-7.177 16-16s-7.178-16-16-16zM16 29.984c-7.711 0-13.984-6.273-13.984-13.984s6.273-13.984 13.984-13.984 13.984 6.273 13.984 13.984c0 7.711-6.273 13.984-13.984 13.984z"></path>
<path class="path2" d="M16 6.915c-1.056 0-1.912 0.855-1.912 1.912 0 0.070 0.005 0.14 0.011 0.207l0.576 9.095c0 0.73 0.593 1.326 1.326 1.326s1.326-0.593 1.326-1.326l0.575-9.095c0.009-0.068 0.011-0.135 0.011-0.207-0-1.055-0.854-1.912-1.912-1.912z"></path>
<path class="path3" d="M14.404 23.487c0 2.13 3.196 2.13 3.196 0s-3.196-2.13-3.196 0z"></path>
</symbol>
<symbol id="icon-external-link" viewBox="0 0 32 32">
<title>external-link</title>
<path class="path1" d="M10.34 3.229l21.66 0.002v21.675l-7.628-7.612-11.466 11.476h-12.906l17.94-17.95-0.376-0.376-7.224-7.215z"></path>
</symbol>
<symbol id="icon-download" viewBox="0 0 32 32">
<title>download</title>
<path class="path1" d="M24.977 7.014h-3.074v-3.074l3.074 3.074zM6.12 1.909c-0.622 0-1.128 0.506-1.128 1.128v25.925c0 0.622 0.506 1.128 1.128 1.128h19.761c0.622 0 1.128-0.506 1.128-1.128v-21.941l-5.11-5.11-15.778-0.002zM6.423 28.66v-25.319h14.049v3.978c0 0.622 0.506 1.128 1.128 1.128h3.977v20.214h-19.154z"></path>
<path class="path2" d="M22.609 17.146l-1.164-1.165-4.618 4.61v-11.2h-1.653v11.2l-4.618-4.61-1.164 1.165 6.609 6.609 6.608-6.609z"></path>
</symbol>
<symbol id="icon-info" viewBox="0 0 32 32">
<title>info</title>
<path class="path1" d="M16.001 0c-8.837 0-16.001 7.164-16.001 16s7.164 16 16.001 16c8.836 0 15.999-7.164 15.999-16s-7.163-16-15.999-16zM17.854 22.919l-0.106 0.993c-2.783 1.726-6.683 1.241-5.058-2.946 0.598-1.544 2.79-4.492 2.149-6.175-0.263-0.693-1.14-0.693-1.995-0.402l0.099-0.918c1.448-0.965 3.342-1.492 4.704-0.674 2.438 1.463-1.090 6.783-1.512 7.839-0.874 2.187 0.206 2.693 1.719 2.282zM17.74 11.060c-1.078 0-1.954-0.876-1.954-1.954s0.876-1.954 1.954-1.954c1.079 0 1.954 0.875 1.954 1.954s-0.875 1.954-1.954 1.954z"></path>
</symbol>
<symbol id="icon-link" viewBox="0 0 32 32">
<title>link</title>
<path class="path1" d="M22.267 15.871c0.755 0.708 1.172 1.654 1.172 2.662 0 1.007-0.417 1.953-1.172 2.66l-8.308 7.807c-0.756 0.708-1.761 1.099-2.834 1.099-1.074 0-2.079-0.39-2.833-1.099l-2.576-2.422c-0.754-0.708-1.17-1.652-1.172-2.66 0-1.008 0.417-1.953 1.17-2.661l3.739-3.513 1.135 1.064-3.739 3.511c-0.453 0.425-0.702 0.993-0.702 1.599 0 0.604 0.25 1.172 0.702 1.596l2.574 2.421c0.906 0.849 2.498 0.849 3.401 0l8.31-7.806c0.453-0.424 0.7-0.991 0.7-1.596s-0.247-1.173-0.7-1.597l-2.577-2.422c-0.452-0.424-1.055-0.658-1.701-0.658s-1.249 0.233-1.699 0.658l-1.442 1.354-1.133-1.064 1.441-1.355c0.753-0.708 1.759-1.097 2.833-1.097 1.071 0 2.077 0.389 2.833 1.097l2.577 2.422zM26.284 5.419l-2.576-2.421c-0.754-0.71-1.761-1.097-2.833-1.097-1.074 0-2.079 0.388-2.835 1.097l-8.31 7.805c-0.754 0.71-1.17 1.656-1.17 2.663s0.417 1.954 1.17 2.66l2.576 2.422c0.756 0.708 1.762 1.098 2.834 1.098 1.073 0 2.081-0.39 2.836-1.098l1.448-1.36-1.132-1.065-1.449 1.361c-0.902 0.848-2.5 0.848-3.4 0l-2.58-2.421c-0.449-0.424-0.701-0.992-0.701-1.597 0-0.607 0.252-1.173 0.701-1.597l8.311-7.808c0.451-0.423 1.056-0.657 1.701-0.657 0.642 0 1.246 0.233 1.698 0.657l2.578 2.421c0.453 0.426 0.701 0.993 0.701 1.6 0 0.603-0.248 1.172-0.701 1.595l-3.73 3.504 1.134 1.065 3.726-3.504c0.756-0.707 1.172-1.654 1.174-2.661 0-1.007-0.417-1.953-1.172-2.663z"></path>
</symbol>
<symbol id="icon-print" viewBox="0 0 32 32">
<title>print</title>
<path class="path1" d="M8.884 10.024h-1.433v-8.322c0-0.622 0.506-1.129 1.129-1.129h14.84c0.622 0 1.129 0.507 1.129 1.129v8.322h-1.433v-8.018h-14.232v8.018zM11.487 27.747h9.027v-1.433h-9.027v1.433zM11.487 24.932h9.027v-1.433h-9.027v1.433zM32 11.159v12.834c0 0.622-0.507 1.129-1.129 1.129h-7.383l0.871 5.175c0 0.622-0.507 1.13-1.129 1.13h-14.461c-0.622 0-1.129-0.507-1.129-1.13l0.010-0.12 0.856-5.055h-7.378c-0.622-0-1.129-0.507-1.129-1.13v-12.834c0-0.622 0.507-1.13 1.129-1.13h29.742c0.622 0 1.129 0.507 1.129 1.13zM22.865 29.994l-1.618-9.552h-10.494l-1.618 9.552h13.73zM30.567 11.463h-29.134v12.227h7.317l0.614-3.626c0.039-0.588 0.53-1.054 1.127-1.054h11.019c0.597 0 1.088 0.466 1.127 1.054l0.611 3.626h7.32v-12.227z"></path>
</symbol>
<symbol id="icon-video" viewBox="0 0 32 32">
<title>video</title>
<path class="path1" d="M29.842 27.222c-0.425 0-0.824-0.168-1.123-0.473l-4.213-4.263v0.517c0 2.327-1.873 4.219-4.176 4.219h-15.578c-2.302 0-4.175-1.892-4.175-4.219v-14.005c0-2.327 1.873-4.219 4.175-4.219h15.578c2.303 0 4.176 1.892 4.176 4.219v0.517l4.216-4.266c0.293-0.302 0.692-0.47 1.12-0.47 0.872 0 1.582 0.714 1.582 1.592v19.26c0 0.877-0.71 1.591-1.582 1.591zM23.071 18.996l6.669 6.747c0.018 0.019 0.053 0.046 0.102 0.046 0.082 0 0.149-0.072 0.149-0.159v-19.26c0-0.088-0.067-0.16-0.149-0.16-0.048 0-0.080 0.021-0.097 0.040l-6.674 6.753 0.002-4.006c0-1.537-1.231-2.787-2.744-2.787h-15.578c-1.512 0-2.742 1.25-2.742 2.787v14.006c0 1.537 1.23 2.787 2.742 2.787h15.578c1.513 0 2.744-1.25 2.744-2.787l-0.002-4.006z"></path>
</symbol>
<symbol id="icon-calendar" viewBox="0 0 32 32">
<title>calendar</title>
<path class="path1" d="M14.056 21.917h3.999v3h-3.999v-3z"></path>
<path class="path2" d="M14.056 16.918h3.999v3h-3.999v-3z"></path>
<path class="path3" d="M14.056 11.918h3.999v3h-3.999v-3z"></path>
<path class="path4" d="M7.021 11.918h4.001v3h-4v-3z"></path>
<path class="path5" d="M7.021 16.918h4.001v3h-4v-3z"></path>
<path class="path6" d="M7.021 21.917h4.001v3h-4v-3z"></path>
<path class="path7" d="M21.045 21.917h4v3h-4v-3z"></path>
<path class="path8" d="M21.045 16.918h4v3h-4v-3z"></path>
<path class="path9" d="M21.045 11.918h4v3h-4v-3z"></path>
<path class="path10" d="M30.817 2.877h-6.95v-1.863c0-0.454-0.368-0.822-0.822-0.822s-0.822 0.368-0.822 0.822v1.863h-5.4v-1.863c0-0.454-0.368-0.822-0.822-0.822s-0.822 0.368-0.822 0.822v1.863h-5.336v-1.863c0-0.454-0.368-0.822-0.822-0.822s-0.822 0.368-0.822 0.822v1.863h-7.014c-0.654 0-1.184 0.53-1.184 1.183v26.565c0 0.654 0.53 1.183 1.184 1.183h29.633c0.654 0 1.183-0.53 1.183-1.183v-26.565c0-0.654-0.529-1.183-1.183-1.183zM30.356 30.165h-28.712v-25.644h6.555v2.3c0 0.454 0.368 0.822 0.822 0.822s0.822-0.368 0.822-0.822v-2.3h5.336v2.3c0 0.454 0.368 0.822 0.822 0.822s0.822-0.368 0.822-0.822v-2.3h5.401v2.3c0 0.454 0.368 0.822 0.822 0.822s0.822-0.368 0.822-0.822v-2.3h6.489v25.644z"></path>
</symbol>
<symbol id="icon-check" viewBox="0 0 32 32">
<title>check</title>
<path class="path1" d="M13.104 17.925l-4.427-4.662-3.277 3.452 7.704 8.117 13.496-14.21-3.288-3.454z"></path>
</symbol>
<symbol id="icon-unchecked-box" viewBox="0 0 32 32">
<title>unchecked-box</title>
<path class="path1" d="M27.254 32h-22.508c-2.617 0-4.746-2.129-4.746-4.746v-22.508c0-2.617 2.129-4.746 4.746-4.746h22.508c2.617 0 4.746 2.129 4.746 4.746v22.508c0 2.617-2.129 4.746-4.746 4.746zM4.746 1.99c-1.52 0-2.756 1.236-2.756 2.756v22.508c0 1.52 1.236 2.757 2.756 2.757h22.508c1.52 0 2.756-1.237 2.756-2.757v-22.508c0-1.52-1.236-2.756-2.756-2.756h-22.508z"></path>
</symbol>
<symbol id="icon-checked-box" viewBox="0 0 32 32">
<title>checked-box</title>
<path class="path1" d="M13.104 17.925l-4.427-4.662-3.277 3.452 7.704 8.117 13.496-14.21-3.288-3.454z"></path>
<path class="path2" d="M27.254 0h-22.508c-2.617 0-4.746 2.129-4.746 4.746v22.508c0 2.617 2.129 4.746 4.746 4.746h22.508c2.617 0 4.746-2.129 4.746-4.746v-22.508c0-2.617-2.129-4.746-4.746-4.746zM30.010 27.254c0 1.52-1.236 2.757-2.756 2.757h-22.508c-1.52 0-2.756-1.237-2.756-2.757v-22.508c0-1.52 1.236-2.756 2.756-2.756h22.508c1.52 0 2.756 1.236 2.756 2.756v22.508z"></path>
</symbol>
<symbol id="icon-radio-deselected" viewBox="0 0 32 32">
<title>radio-deselected</title>
<path class="path1" d="M16 0c-8.822 0-16 7.178-16 16s7.178 16 16 16 16-7.177 16-16-7.178-16-16-16zM16 29.984c-7.711 0-13.984-6.273-13.984-13.984s6.273-13.984 13.984-13.984 13.984 6.273 13.984 13.984c0 7.711-6.273 13.984-13.984 13.984z"></path>
</symbol>
<symbol id="icon-radio-selected" viewBox="0 0 32 32">
<title>radio-selected</title>
<path class="path1" d="M16 0c-8.822 0-16 7.178-16 16s7.178 16 16 16 16-7.177 16-16-7.178-16-16-16zM16 29.984c-7.711 0-13.984-6.273-13.984-13.984s6.273-13.984 13.984-13.984 13.984 6.273 13.984 13.984c0 7.711-6.273 13.984-13.984 13.984z"></path>
<path class="path2" d="M16.017 8.043c-4.42 0-8 3.581-8 8 0 4.42 3.58 8 8 8 4.419 0 8-3.58 8-8 0-4.419-3.581-8-8-8z"></path>
</symbol>
<symbol id="icon-edit" viewBox="0 0 32 32">
<title>edit</title>
<path class="path1" d="M9.855 19.592v2.565h2.56l7.551-7.565-2.56-2.565z"></path>
<path class="path2" d="M20.348 10.043c-0.266-0.267-0.697-0.267-0.963 0l-1.25 1.252 2.56 2.565 1.25-1.252c0.266-0.267 0.266-0.698 0-0.965l-1.597-1.6z"></path>
</symbol>
<symbol id="icon-menu" viewBox="0 0 32 32">
<title>menu</title>
<path class="path1" d="M32 13.913h-32v4.174h32v-4.174zM32 21.566h-32v4.173h32v-4.173zM32 6.261h-32v4.174h32v-4.174z"></path>
</symbol>
<symbol id="icon-accounts-mobile" viewBox="0 0 32 32">
<title>accounts-mobile</title>
<path class="path1" d="M16 4.682c-6.24 0-11.318 5.077-11.318 11.317s5.077 11.318 11.318 11.318c6.241 0 11.317-5.077 11.317-11.318s-5.077-11.317-11.317-11.317zM16 26.418c-5.745 0-10.418-4.674-10.418-10.419s4.674-10.418 10.418-10.418c5.744 0 10.418 4.674 10.418 10.418s-4.674 10.419-10.418 10.419z"></path>
<path class="path2" d="M18.287 15.206c-0.365-0.29-1.043-0.639-2.032-1.050-0.557-0.227-0.927-0.441-1.109-0.641-0.187-0.196-0.281-0.394-0.281-0.595 0-0.236 0.106-0.444 0.318-0.625s0.487-0.271 0.825-0.271c0.575 0 1.157 0.303 1.744 0.909l1.29-1.257c-0.41-0.414-0.765-0.708-1.066-0.882s-0.667-0.312-1.099-0.415v-0.755h-1.257v0.668c-0.748 0.036-1.368 0.293-1.858 0.772s-0.735 1.055-0.735 1.728c0 0.405 0.092 0.787 0.277 1.146s0.464 0.682 0.838 0.969c0.375 0.287 1.092 0.676 2.153 1.167 0.521 0.241 0.873 0.477 1.056 0.708 0.178 0.231 0.267 0.501 0.267 0.808 0 0.365-0.139 0.683-0.417 0.953s-0.612 0.404-1 0.404c-0.762 0-1.55-0.435-2.366-1.303l-1.269 1.303c0.481 0.516 1.002 0.931 1.563 1.243 0.41 0.227 0.906 0.374 1.491 0.441v1.744h1.257v-1.784c0.619-0.129 1.093-0.318 1.423-0.568 0.33-0.249 0.6-0.589 0.809-1.016s0.314-0.893 0.314-1.397c0-0.503-0.098-0.958-0.294-1.363s-0.477-0.753-0.842-1.043z"></path>
</symbol>
<symbol id="icon-accounts-mobile-selected" viewBox="0 0 32 32">
<title>accounts-mobile-selected</title>
<path class="path1" d="M16 4.682c-6.24 0-11.318 5.077-11.318 11.317s5.077 11.318 11.318 11.318c6.241 0 11.317-5.077 11.317-11.318s-5.077-11.317-11.317-11.317zM19.11 19.008c-0.209 0.428-0.479 0.767-0.809 1.016-0.329 0.249-0.804 0.439-1.423 0.568v1.784h-1.257v-1.744c-0.584-0.067-1.080-0.214-1.491-0.441-0.561-0.312-1.083-0.726-1.563-1.243l1.269-1.303c0.816 0.869 1.604 1.303 2.366 1.303 0.387 0 0.721-0.135 1-0.404s0.417-0.587 0.417-0.953c0-0.307-0.089-0.577-0.267-0.808-0.183-0.231-0.535-0.468-1.056-0.708-1.061-0.49-1.778-0.879-2.153-1.167s-0.653-0.61-0.838-0.969c-0.185-0.359-0.277-0.741-0.277-1.146 0-0.673 0.245-1.249 0.735-1.728s1.109-0.736 1.858-0.772v-0.668h1.257v0.755c0.432 0.103 0.798 0.241 1.099 0.415s0.656 0.468 1.066 0.882l-1.29 1.257c-0.588-0.606-1.169-0.909-1.744-0.909-0.338 0-0.613 0.090-0.825 0.271s-0.318 0.389-0.318 0.625c0 0.201 0.094 0.399 0.281 0.595 0.183 0.2 0.552 0.414 1.109 0.641 0.989 0.41 1.666 0.76 2.032 1.050s0.647 0.637 0.842 1.043c0.196 0.405 0.294 0.86 0.294 1.363s-0.105 0.969-0.314 1.397z"></path>
</symbol>
<symbol id="icon-broker-mobile" viewBox="0 0 32 32">
<title>broker-mobile</title>
<path class="path1" d="M24.264 3.51h-7.353c-2.254 0-3.586 0.834-4.32 2.703l0.838 0.329c0.595-1.514 1.604-2.132 3.482-2.132h7.353c2.41 0 4.228 1.704 4.228 3.964v2.417c0 2.386-1.893 4.402-4.133 4.402h-2.006l-3.326 2.996-0.446-2.996h-1.788v0.9h1.011l0.578 3.887 4.315-3.887h1.661c2.728 0 5.033-2.428 5.033-5.303v-2.417c-0-2.728-2.253-4.864-5.128-4.864z"></path>
<path class="path2" d="M14.322 19.239l-0.412-0.145c-0.856-0.433-1.015-0.445-1.027-1.424 0.030-0.034 0.475-0.431 0.638-0.615 1.531-1.746 1.29-4.727 1.262-4.995-0.055-1.156-0.382-2.009-0.846-2.635-0.034-0.046-0.067-0.092-0.101-0.136-0.033-0.040-0.066-0.079-0.101-0.116-0.336-0.388-0.727-0.67-1.133-0.862-0.616-0.3-1.262-0.416-1.799-0.416-0.045 0-0.088 0.001-0.131 0.002-0.042-0.002-0.084-0.002-0.127-0.002-0.437-0-0.955 0.079-1.47 0.277-0.65 0.231-1.289 0.666-1.761 1.388-0.010 0.016-0.021 0.031-0.031 0.048-0.047 0.075-0.093 0.153-0.136 0.234-0.048 0.088-0.094 0.179-0.138 0.274-0.007 0.017-0.015 0.034-0.024 0.053-0.229 0.519-0.385 1.139-0.421 1.892-0.027 0.268-0.296 3.249 1.261 4.995 0.163 0.184 0.605 0.58 0.634 0.615-0.012 0.978-0.171 0.991-1.027 1.424l-0.411 0.145c-2.905 0.809-4.411 2.746-4.411 6.019 0 1.748 2.281 3.21 8.062 3.231 5.781-0.021 8.062-1.483 8.062-3.231 0-3.273-1.507-5.21-4.411-6.019zM10.674 27.59c-5.289-0.019-7.166-1.268-7.166-2.331 0-2.802 1.192-4.439 3.752-5.152l0.029-0.008 0.028-0.010 0.467-0.164 0.052-0.026 0.153-0.077c0.939-0.469 1.352-0.814 1.368-2.139l0.004-0.336-0.217-0.256c-0.044-0.052-0.079-0.084-0.208-0.204-0.117-0.108-0.358-0.334-0.442-0.428-1.305-1.463-1.049-4.191-1.037-4.307l0.002-0.023 0.001-0.023c0.028-0.582 0.143-1.106 0.341-1.56 0.010-0.021 0.018-0.040 0.022-0.049 0.036-0.076 0.072-0.15 0.115-0.229 0.032-0.060 0.067-0.119 0.109-0.185l0.018-0.028c0.321-0.49 0.761-0.838 1.33-1.040 0.365-0.14 0.773-0.217 1.148-0.217 0.032 0 0.064 0 0.094 0.002l0.033 0.001 0.033-0.001c0.032-0.001 0.065-0.002 0.098-0.002 0.275 0 0.824 0.042 1.415 0.33 0.319 0.151 0.601 0.365 0.836 0.636l0.009 0.010 0.009 0.010c0.021 0.022 0.040 0.045 0.060 0.069 0.020 0.026 0.039 0.053 0.059 0.080l0.022 0.030c0.403 0.545 0.629 1.266 0.671 2.143l0.001 0.025 0.003 0.025c0.081 0.775 0.052 3.059-1.040 4.304-0.083 0.093-0.339 0.331-0.449 0.432-0.106 0.099-0.18 0.172-0.194 0.189l-0.226 0.259 0.004 0.343c0.016 1.325 0.429 1.67 1.368 2.139l0.206 0.103 0.495 0.174 0.029 0.008c2.56 0.713 3.753 2.35 3.753 5.152 0 1.063-1.876 2.312-7.159 2.331z"></path>
</symbol>
<symbol id="icon-broker-mobile-selected" viewBox="0 0 32 32">
<title>broker-mobile-selected</title>
<path class="path1" d="M24.264 3.51h-7.353c-2.253 0-3.586 0.834-4.32 2.703l0.838 0.329c0.595-1.514 1.604-2.132 3.482-2.132h7.353c2.41 0 4.228 1.704 4.228 3.964v2.417c0 2.386-1.893 4.402-4.133 4.402h-2.006l-3.326 2.996-0.446-2.996h-1.788v0.9h1.011l0.578 3.887 4.315-3.887h1.661c2.728 0 5.033-2.428 5.033-5.303v-2.417c0-2.728-2.253-4.864-5.128-4.864z"></path>
<path class="path2" d="M14.322 19.239l-0.412-0.145c-0.856-0.433-1.015-0.445-1.027-1.424 0.030-0.034 0.475-0.431 0.638-0.615 1.531-1.746 1.29-4.727 1.262-4.995-0.055-1.156-0.382-2.009-0.846-2.635-0.034-0.046-0.067-0.092-0.101-0.136-0.033-0.040-0.066-0.079-0.101-0.116-0.336-0.388-0.727-0.67-1.133-0.862-0.616-0.3-1.262-0.416-1.799-0.416-0.045 0-0.088 0.001-0.131 0.002-0.042-0.002-0.084-0.002-0.127-0.002-0.437-0-0.955 0.079-1.47 0.277-0.65 0.231-1.289 0.666-1.761 1.388-0.010 0.016-0.021 0.031-0.031 0.048-0.047 0.075-0.093 0.153-0.136 0.234-0.048 0.088-0.094 0.18-0.138 0.274-0.007 0.017-0.015 0.034-0.024 0.053-0.229 0.519-0.385 1.139-0.421 1.892-0.027 0.268-0.296 3.249 1.261 4.995 0.163 0.184 0.605 0.58 0.634 0.615-0.012 0.978-0.171 0.991-1.027 1.424l-0.411 0.145c-2.905 0.809-4.411 2.746-4.411 6.019 0 1.748 2.281 3.21 8.062 3.231 5.781-0.021 8.062-1.483 8.062-3.231 0-3.273-1.507-5.21-4.411-6.019z"></path>
</symbol>
<symbol id="icon-close" viewBox="0 0 32 32">
<title>close</title>
<path class="path1" d="M28 32l-12-12-12 12-4-4 12-12-12-12 4-4 12 12 12-11.999 4 4-12 12 12 12-4 4z"></path>
</symbol>
<symbol id="icon-add" viewBox="0 0 32 32">
<title>add</title>
<path class="path1" d="M13.714 32v-13.715h-13.714v-4.572h13.714v-13.714h4.572v13.714h13.714v4.572h-13.714v13.715h-4.572z"></path>
</symbol>
<symbol id="icon-arrow" viewBox="0 0 32 32">
<title>arrow</title>
<path class="path1" d="M0 8l16 16 16-16h-32z"></path>
</symbol>
<symbol id="icon-chevron" viewBox="0 0 32 32">
<title>chevron</title>
<path class="path1" d="M28.229 6.379l-12.229 11.902-12.228-11.902-3.772 3.671 16 15.571 16-15.571-3.771-3.671z"></path>
</symbol>
<symbol id="icon-double-arrow" viewBox="0 0 32 32">
<title>double-arrow</title>
<path class="path1" d="M18.035 1.26l-3.294 3.474 10.676 11.266-10.676 11.267 3.294 3.474 13.965-14.74-13.965-14.74zM3.294 1.26l-3.294 3.474 10.676 11.266-10.676 11.267 3.294 3.474 13.965-14.74-13.965-14.74z"></path>
</symbol>
<symbol id="icon-more" viewBox="0 0 32 32">
<title>more</title>
<path class="path1" d="M16 8c2.199 0 4-1.8 4-4s-1.801-4-4-4c-2.201 0-4 1.8-4 4s1.799 4 4 4zM16 12c-2.201 0-4 1.8-4 4 0 2.199 1.799 4 4 4 2.199 0 4-1.801 4-4s-1.801-4-4-4zM16 24c-2.201 0-4 1.801-4 4s1.799 4 4 4c2.199 0 4-1.801 4-4s-1.801-4-4-4z"></path>
</symbol>
<symbol id="icon-lock" viewBox="0 0 32 32">
<title>lock</title>
<path class="path1" d="M21.185 10.075c0-2.86-2.32-5.18-5.18-5.18-2.862 0-5.179 2.32-5.179 5.18v3.352h10.361v-3.352h-0.002zM27.241 32h-22.477c-0.801 0-1.451-0.648-1.451-1.451v-15.671c0-0.801 0.648-1.449 1.451-1.449h1.45v-3.642c0-5.406 4.381-9.787 9.787-9.787 5.404 0 9.787 4.381 9.787 9.787v3.64h1.449c0.801 0 1.449 0.648 1.449 1.449v15.671c0.004 0.805-0.644 1.453-1.445 1.453z"></path>
</symbol>
<symbol id="icon-custom-column" viewBox="0 0 32 32">
<title>custom-column</title>
<path class="path1" d="M31.844 18.219c0.1-0.726 0.155-1.465 0.155-2.219s-0.055-1.494-0.155-2.219l-3.751-0.848c-0.299-1.18-0.767-2.294-1.374-3.313l2.056-3.255c-0.898-1.184-1.953-2.241-3.139-3.138l-3.255 2.057c-1.020-0.608-2.133-1.076-3.314-1.374l-0.848-3.752c-0.726-0.101-1.465-0.157-2.219-0.157s-1.493 0.056-2.219 0.157l-0.848 3.752c-1.18 0.298-2.291 0.765-3.311 1.373l-3.255-2.057c-1.186 0.897-2.244 1.954-3.139 3.138l2.056 3.255c-0.609 1.020-1.077 2.133-1.374 3.313l-3.754 0.848c-0.1 0.726-0.155 1.466-0.155 2.219s0.056 1.493 0.155 2.219l3.754 0.847c0.297 1.182 0.765 2.294 1.374 3.314l-2.055 3.256c0.895 1.184 1.953 2.241 3.139 3.137l3.255-2.055c1.017 0.608 2.13 1.075 3.311 1.373l0.848 3.753c0.726 0.099 1.466 0.156 2.219 0.156s1.493-0.057 2.219-0.156l0.848-3.753c1.18-0.299 2.294-0.766 3.314-1.374l3.255 2.055c1.186-0.895 2.241-1.953 3.139-3.137l-2.056-3.256c0.607-1.020 1.075-2.132 1.374-3.314l3.751-0.847zM16 25.076c-5.014 0-9.076-4.063-9.076-9.076s4.061-9.078 9.076-9.078 9.079 4.064 9.079 9.078-4.064 9.076-9.079 9.076z"></path>
</symbol>
</defs>
</svg>
